<?xml version="1.0" standalone="no"?>
<!DOCTYPE svg PUBLIC "-//W3C//DTD SVG 1.1//EN" "http://www.w3.org/Graphics/SVG/1.1/DTD/svg11.dtd" >
<svg xmlns="http://www.w3.org/2000/svg" xmlns:xlink="http://www.w3.org/1999/xlink" version="1.1">
<metadata>
Created by FontForge 20161003 at Sun Jan 14 19:17:48 2018
 By www-data
2007 Vic Fieger
</metadata>
<defs>
<font id="helsinki" horiz-adv-x="1139" >
  <font-face 
    font-family="helsinki"
    font-weight="400"
    font-stretch="normal"
    units-per-em="2048"
    panose-1="2 0 0 0 0 0 0 0 0 0"
    ascent="1638"
    descent="-410"
    x-height="1439"
    cap-height="1453"
    bbox="-23 -416 1755.88 1854"
    underline-thickness="150"
    underline-position="-442"
    unicode-range="U+0020-F005"
  />
<missing-glyph horiz-adv-x="1536" 
d="M256 0v1280h1024v-1280h-1024zM288 32h960v1216h-960v-1216z" />
    <glyph glyph-name=".notdef" horiz-adv-x="1536" 
d="M256 0v1280h1024v-1280h-1024zM288 32h960v1216h-960v-1216z" />
    <glyph glyph-name=".null" horiz-adv-x="0" 
 />
    <glyph glyph-name="nonmarkingreturn" horiz-adv-x="569" 
 />
    <glyph glyph-name="space" unicode=" " horiz-adv-x="569" 
 />
    <glyph glyph-name="space" unicode="&#xa0;" horiz-adv-x="569" 
 />
    <glyph glyph-name="exclam" unicode="!" horiz-adv-x="626" 
d="M206 1474l-52 -1047q85 -56 214 -13l198 1012q-153 108 -360 48zM218 326q41 0 80 -21t61 -60t22 -82q0 -42 -21.5 -81t-60.5 -60t-81 -21q-43 0 -81.5 21t-60 60t-21.5 81q0 43 22 82t60.5 60t80.5 21z" />
    <glyph glyph-name="quotedbl" unicode="&#x22;" horiz-adv-x="720" 
d="M359 1518l-44 -564q-128 -76 -260 -3l46 574q139 32 258 -7zM660 1511l-43 -564q-128 -76 -260 -3l46 574q139 32 257 -7z" />
    <glyph glyph-name="numbersign" unicode="#" 
 />
    <glyph glyph-name="dollar" unicode="$" horiz-adv-x="1227" 
d="M120 121q-65 227 76 352q257 -151 373 -186q216 2 237 108q5 85 -132 164l-257 125q-241 128 -250 361q9 134 92.5 241t188 140.5t129.5 34.5l19 200q139 69 263 -16l-19 -209q120 -1 319 -135q8 -189 -118 -329q-243 182 -389 170q-137 16 -145 -98q-5 -65 193 -168
q227 -92 336.5 -211t97.5 -289q-16 -230 -214 -353q-126 -88 -192 -99l-5 -202q-201 -74 -296 37l16 206q-114 14 -323 156z" />
    <glyph glyph-name="percent" unicode="%" horiz-adv-x="1821" 
 />
    <glyph glyph-name="ampersand" unicode="&#x26;" horiz-adv-x="1415" 
d="M1017 214q-4 -12 -10 -24q-79 -86 -143 -124q-150 -88 -326 -95q-111 -4 -210 30q-137 47 -207 152t-66 267q5 175 104 296.5t268 131.5l-246 292q-49 152 11 284l834 41q99 -150 -21 -326l-467 8l848 -924q-52 -181 -154 -246zM603 670h-3q-255 -83 -237 -203t94.5 -160
t175 -15.5t189.5 84.5q15 9 30 20z" />
    <glyph glyph-name="quotesingle" unicode="'" horiz-adv-x="419" 
d="M359 1518l-44 -564q-128 -76 -260 -3l46 574q139 32 258 -7z" />
    <glyph glyph-name="parenleft" unicode="(" horiz-adv-x="682" 
 />
    <glyph glyph-name="parenright" unicode=")" horiz-adv-x="682" 
 />
    <glyph glyph-name="asterisk" unicode="*" horiz-adv-x="912" 
d="M586 819l-156 219l-211 -199q-136 34 -164 200l227 184l-164 211q55 124 227 140l144 -196l215 171q148 -40 140 -181l-218 -194l168 -188q-73 -134 -208 -167z" />
    <glyph glyph-name="plus" unicode="+" horiz-adv-x="1196" 
 />
    <glyph glyph-name="comma" unicode="," horiz-adv-x="497" 
d="M237 316q46 0 89.5 -26t68 -74t24.5 -101q18 -83 -139 -402l-136 36l14 166q-55 52 -79 100t-24 100q0 53 25 101t68 74t89 26z" />
    <glyph glyph-name="hyphen" unicode="-" horiz-adv-x="871" 
d="M78 631q-23 162 35 331h685q13 -169 -35 -331h-685z" />
    <glyph glyph-name="hyphen" unicode="&#xad;" horiz-adv-x="871" 
d="M78 631q-23 162 35 331h685q13 -169 -35 -331h-685z" />
    <glyph glyph-name="period" unicode="." horiz-adv-x="441" 
d="M218 316q41 0 80 -21t61 -60t22 -82q0 -42 -21.5 -81t-60.5 -60t-81 -21q-43 0 -81.5 21t-60 60t-21.5 81q0 43 22 82t60.5 60t80.5 21z" />
    <glyph glyph-name="slash" unicode="/" horiz-adv-x="602" 
d="M15 -296q58 -117 181 -52l418 2102q-81 89 -171 51z" />
    <glyph glyph-name="zero" unicode="0" horiz-adv-x="1296" 
d="M1094 1251q142 -215 115.5 -544.5t-192.5 -543.5t-409 -214t-398 208.5t-129.5 535.5t207.5 550t423 223t383 -215zM511.5 983.5q-73.5 -107.5 -88.5 -286t51.5 -295.5t160.5 -110.5t158 118t74.5 279t-45 283.5t-146.5 117.5t-164.5 -106z" />
    <glyph glyph-name="one" unicode="1" horiz-adv-x="631" 
d="M489 -18l82 1423q-10 55 -52 63l-358 -18q-106 -155 -26 -352l87 2l-70 -1138q220 -39 337 20z" />
    <glyph glyph-name="two" unicode="2" horiz-adv-x="1305" 
d="M629 275l516 27q100 -134 2 -333l-1022 -20q-70 190 50 354q594 441 635 584.5t-37.5 208.5t-210.5 9.5t-271 -171.5q-166 108 -108 327q247 196 458 196q247 0 388 -120q104 -86 125 -304t-137 -417.5t-388 -340.5z" />
    <glyph glyph-name="three" unicode="3" horiz-adv-x="1304" 
d="M245 1384l940 60q54 -126 -19 -287l-310 -325q190 10 289 -101t85 -288q-13 -164 -104 -279t-251 -179q-116 -47 -240 -56q-199 -15 -359 57q-69 30 -149 108q-72 181 56 347q77 -87 173.5 -136.5t205.5 -62.5t200 37t125 174t-247 177l-110 -28q-113 127 -21 288
l255 231l-530 -65q-118 164 11 328z" />
    <glyph glyph-name="four" unicode="4" horiz-adv-x="1277" 
d="M752 1405l-631 -887q-66 -159 28 -283l588 10l-9 -283q149 -55 315 3l7 283l105 3q62 152 8 304l-89 1l29 865q-238 70 -351 -16zM758 534l-306 -5l340 500z" />
    <glyph glyph-name="five" unicode="5" horiz-adv-x="1256" 
d="M120 121q-65 227 76 352q257 -151 373 -186q216 2 237 108q51 242 -123 276q-278 -4 -379.5 -20t-160.5 93l57 667q7 34 80 45l831 15q85 -173 -15 -322l-591 -11l-27 -176q231 26 362.5 3t241.5 -142t59 -454q-23 -223 -221 -346q-126 -88 -364 -73q-227 29 -436 171z
" />
    <glyph glyph-name="six" unicode="6" horiz-adv-x="1356" 
d="M336 1042.5q-161 -254.5 -218 -487.5q-63 -412 231 -584q644 -179 803 434q144 592 -543 498q192 291 411 382q-14 163 -153 232q-370 -220 -531 -474.5zM843.5 587q35.5 -45 2 -182.5t-147.5 -174.5t-182 9.5t-79 142.5t26 165t191 77t189.5 -37z" />
    <glyph glyph-name="seven" unicode="7" horiz-adv-x="1189" 
d="M598 -24l488 1278q43 201 -89 209l-891 -34q-51 -153 -24 -330l604 15l-431 -1157q208 -39 343 19z" />
    <glyph glyph-name="eight" unicode="8" horiz-adv-x="1260" 
d="M1141 586q37 -79 33 -180q-11 -236 -198 -361q-152 -101 -384 -114q-171 -9 -314 47q-124 47 -182 169q-41 86 -36 193q11 222 179 320l70 41q-192 157 -183 354q12 254 220 363q125 65 307 75q203 11 338 -46q209 -88 197 -334q-10 -209 -159 -299l-70 -41
q115 -46 182 -187zM666 1166q-207 -9 -215 -161q-7 -150 192 -140q201 11 208 158q7 151 -185 143zM626 584q-226 -11 -234 -186q-8 -168 221 -156q221 12 229 177q8 176 -216 165z" />
    <glyph glyph-name="nine" unicode="9" horiz-adv-x="1262" 
d="M893 388.5q170 255.5 234 490.5q75 419 -217 603q-645 200 -823 -420q-32 -572 534 -524q-202 -291 -415 -388q-1 -155 194 -262q323 245 493 500.5zM428 882.5q-40 78.5 -17 194t139.5 150.5t183.5 -15t75.5 -148t-31 -167t-175 -81t-175.5 66.5z" />
    <glyph glyph-name="colon" unicode=":" horiz-adv-x="443" 
d="M218 1111q41 0 80 -21t61 -60t22 -82q0 -42 -21.5 -81t-60.5 -60t-81 -21q-43 0 -81.5 21t-60 60t-21.5 81q0 43 22 82t60.5 60t80.5 21zM220 320q41 0 80 -21t61 -60t22 -82q0 -42 -21.5 -81t-60.5 -60t-81 -21q-43 0 -81.5 21t-60 60t-21.5 81q0 43 22 82t60.5 60
t80.5 21z" />
    <glyph glyph-name="semicolon" unicode=";" horiz-adv-x="505" 
d="M240 316q47 0 91.5 -26t69.5 -74t25 -101q19 -83 -142 -402l-139 36l14 166q-55 52 -79.5 100t-24.5 100q0 53 25 101t69 74t91 26zM233 1111q41 0 80 -21t61 -60t22 -82q0 -42 -21.5 -81t-60.5 -60t-81 -21q-43 0 -81.5 21t-60 60t-21.5 81q0 43 22 82t60.5 60t80.5 21z
" />
    <glyph glyph-name="semicolon" unicode="&#x37e;" horiz-adv-x="505" 
d="M240 316q47 0 91.5 -26t69.5 -74t25 -101q19 -83 -142 -402l-139 36l14 166q-55 52 -79.5 100t-24.5 100q0 53 25 101t69 74t91 26zM233 1111q41 0 80 -21t61 -60t22 -82q0 -42 -21.5 -81t-60.5 -60t-81 -21q-43 0 -81.5 21t-60 60t-21.5 81q0 43 22 82t60.5 60t80.5 21z
" />
    <glyph glyph-name="less" unicode="&#x3c;" horiz-adv-x="1196" 
 />
    <glyph glyph-name="equal" unicode="=" horiz-adv-x="1196" 
 />
    <glyph glyph-name="greater" unicode="&#x3e;" horiz-adv-x="1196" 
 />
    <glyph glyph-name="question" unicode="?" horiz-adv-x="1029" 
d="M55 1177q28 -189 236 -150q65 227 231 224q122 -20 126 -125.5t-122 -169.5q-158 -54 -205 -171.5t-23 -338.5q109 -58 246 -11q8 159 54 220q64 51 189 128q170 104 176 395.5t-402 362.5q-371 -20 -506 -364zM406 330q41 0 80 -21t61 -60t22 -82q0 -42 -21.5 -81
t-60.5 -60t-81 -21q-43 0 -81.5 21t-60 60t-21.5 81q0 43 22 82t60.5 60t80.5 21z" />
    <glyph glyph-name="at" unicode="@" horiz-adv-x="2079" 
 />
    <glyph glyph-name="A" unicode="A" horiz-adv-x="1338" 
d="M579 1461l-524 -1461q109 -93 332 -63l92 270l371 46l72 -268q219 -42 356 48l-400 1440q-141 87 -299 -12zM794 533l-244 -29l157 492z" />
    <glyph glyph-name="B" unicode="B" horiz-adv-x="1343" 
d="M182 1374l-127 -1398l10 -36q11 -36 59 -30l48 7q397 -16 793 43q115 3 200 115.5t78.5 315.5t-223.5 312q180 83 221.5 256t-8.5 318t-248 178.5t-696 -13.5zM925 1115.5q45 -88.5 1 -206.5t-462 -106l36 360q380 41 425 -47.5zM898 498.5q54 -87.5 13.5 -191
t-517.5 -98.5l37 345q413 32 467 -55.5z" />
    <glyph glyph-name="C" unicode="C" horiz-adv-x="1275" 
d="M1180 1319q35 -180 -94 -288q-87 56 -273 89q-163 16 -266 -94.5t-126 -286.5q-34 -111 42 -285q76 -158 231.5 -167t372.5 61q78 -154 15 -302q-257 -118 -417 -112q-295 37 -430 214q-180 237 -122 669q46 342 217 517q223 181 541 148q221 -14 309 -163z" />
    <glyph glyph-name="D" unicode="D" horiz-adv-x="1234" 
d="M102 1324l16 120l100 23l384 -11q572 -103 568 -701q-13 -305 -146 -516q-164 -281 -834 -281l-114 32l-21 138zM412 1155l-40 -881q259 -17 365 89t120.5 331.5t-59 341t-386.5 119.5z" />
    <glyph glyph-name="E" unicode="E" horiz-adv-x="1242" 
d="M192 1437q-36 -17 -47 -56l-90 -1371q10 -55 53 -63l935 37q106 155 23 332l-671 -20l27 310l547 23q87 130 12 276l-537 -11l18 256l654 21q66 137 17 294z" />
    <glyph glyph-name="F" unicode="F" horiz-adv-x="1240" 
d="M190 1437q-36 -17 -47 -56l-88 -1414q136 -86 327 -4l36 565l547 23q87 129 11 275l-536 -10l20 334l654 21q66 137 17 294z" />
    <glyph glyph-name="G" unicode="G" horiz-adv-x="1309" 
d="M1148 788q58 -33 84 -92l-40 -474q-99 -177 -250 -244q-135 -60 -279 -60q-251 0 -400 161q-208 227 -179 649q28 408 267 606q195 129 458 129q144 0 236 -30.5t195 -132.5q9 -176 -86 -288l-101 45q-119 71 -263 71q-191 -4 -278 -87.5t-110 -337.5q-17 -215 38 -328
q52 -158 247 -146q206 24 224 147l6 103l-207 2q-90 178 33 312z" />
    <glyph glyph-name="H" unicode="H" horiz-adv-x="1307" 
d="M141 1398l-86 -1405q110 -79 325 -24l36 610l469 20l-29 -611q138 -85 323 8l68 1423q-142 77 -296 2l-38 -521l-475 -24l29 559q-180 69 -326 -37z" />
    <glyph glyph-name="I" unicode="I" horiz-adv-x="578" 
d="M55 -18q141 -73 345 -15l118 1471q-176 51 -328 15z" />
    <glyph glyph-name="J" unicode="J" horiz-adv-x="1011" 
d="M631 1430q118 -1575 -472 -1003q-104 -71 -67 -287q121 -253 397 -210q203 20 326.5 194t135.5 967l-6 354q-165 53 -314 -15z" />
    <glyph glyph-name="K" unicode="K" horiz-adv-x="1214" 
d="M129 1454l-74 -1456q186 -86 329 -4l23 565l437 -580q142 -20 206.5 31t82.5 158l-500 606l521 521q-65 182 -254 169l-458 -463l29 453q-219 72 -342 0z" />
    <glyph glyph-name="L" unicode="L" horiz-adv-x="1145" 
d="M137 1433l-82 -1423q10 -55 53 -63l871 32q106 156 23 333l-600 -16l72 1157q-220 39 -337 -20z" />
    <glyph glyph-name="M" unicode="M" horiz-adv-x="1471" 
d="M156 1444l-101 -1484l323 -3l53 719l164 -674q59 -66 135 -28l306 696l-41 -710l325 3l91 1483q-134 35 -278 -2l-411 -842l-233 840q-208 57 -333 2z" />
    <glyph glyph-name="N" unicode="N" horiz-adv-x="1307" 
d="M141 1398l-86 -1405q110 -79 325 -24l56 818l447 -816q176 -70 278 22l86 1426q-142 77 -296 2l-48 -788l-476 807q-215 56 -286 -42z" />
    <glyph glyph-name="O" unicode="O" horiz-adv-x="1463" 
d="M1241 1251q162 -215 132 -544.5t-220 -543.5t-467.5 -214t-454 208.5t-147.5 535.5t237 550t483 223t437 -215zM538.5 983.5q-105.5 -107.5 -127.5 -286t74 -295.5t232 -110.5t228 118t107.5 279t-64.5 283.5t-212 117.5t-237.5 -106z" />
    <glyph glyph-name="P" unicode="P" horiz-adv-x="1350" 
d="M182 1374l-127 -1368q122 -104 327 -32l45 430l117 13l324 75q321 79 371.5 354.5t-3 425.5t-251.5 183.5t-696 -13.5zM925 1110.5q45 -96.5 -6.5 -236.5t-464.5 -168l46 456q380 45 425 -51.5z" />
    <glyph glyph-name="Q" unicode="Q" horiz-adv-x="1463" 
d="M1241 1251q162 -215 132 -544.5t-279 -629.5l76 -195l-293 -115l-84 213q-385 -31 -561.5 177.5t-147.5 535.5t237 550t483 223t437 -215zM538.5 983.5q-105.5 -107.5 -127.5 -286t74 -295.5t213 -113l-62 184l242 104l72 -170q87 114 102.5 281.5t-64.5 283.5
t-212 117.5t-237.5 -106z" />
    <glyph glyph-name="R" unicode="R" horiz-adv-x="1350" 
d="M182 1374l-127 -1368q122 -104 327 -32l47 473l117 12l351 -509q230 -70 328 127l-354 457q321 80 370 334t-4.5 404t-251.5 183.5t-696 -13.5zM925 1110.5q45 -96.5 -5 -215t-463 -146.5l43 413q380 45 425 -51.5z" />
    <glyph glyph-name="S" unicode="S" horiz-adv-x="1227" 
d="M120 121q-65 227 76 352q257 -151 373 -186q216 2 237 108q5 85 -132 164l-257 125q-241 128 -250 361q9 134 92.5 241t188 140.5t248.5 24.5q264 -16 463 -150q8 -189 -118 -329q-243 182 -389 170q-137 16 -145 -98q-5 -65 193 -168q227 -92 336.5 -211t97.5 -289
q-16 -230 -214 -353q-126 -88 -364 -73q-227 29 -436 171z" />
    <glyph glyph-name="T" unicode="T" horiz-adv-x="1357" 
d="M157 1434q-102 -131 9 -318l363 8l-65 -1148q181 -67 333 -2l54 1163l369 5q77 161 8 321z" />
    <glyph glyph-name="U" unicode="U" horiz-adv-x="1295" 
d="M135 1439q180 35 343 -5q-61 -794 -56.5 -922.5t53.5 -196t167.5 -67.5t163 73t56.5 191.5t41 924.5q146 37 332 2q-48 -1069 -107 -1201.5t-180 -214t-317 -81.5t-343.5 98.5t-190 285.5t37.5 1113z" />
    <glyph glyph-name="V" unicode="V" horiz-adv-x="1389" 
d="M1329 1453l-570 -1469q-179 -81 -341 -3l-363 1472q186 32 375 0l191 -1052l326 1052q185 30 382 0z" />
    <glyph glyph-name="W" unicode="W" horiz-adv-x="1553" 
d="M1244 -26l249 1470q-155 69 -307 17l-159 -876l-93 861q-118 45 -297 8l-205 -843l-41 856q-188 33 -336 -10l133 -1513q154 -33 319 5l235 874l137 -857q223 -47 365 8z" />
    <glyph glyph-name="X" unicode="X" horiz-adv-x="1313" 
d="M178 1318l298 -546l-421 -627q63 -170 283 -215l306 539l313 -553q177 19 296 178l-399 692l355 515q-117 158 -280 153l-245 -394l-211 410q-200 0 -295 -152z" />
    <glyph glyph-name="Y" unicode="Y" horiz-adv-x="1278" 
d="M55 1359l367 -685l-27 -711q139 -63 321 -2l29 705l473 700q-81 107 -293 96l-315 -510l-239 516q-215 14 -316 -109z" />
    <glyph glyph-name="Z" unicode="Z" horiz-adv-x="1350" 
d="M178 1125l604 6l-668 -896q-59 -204 40 -295l1021 4q61 182 -3 341l-617 -11l657 878q78 173 -19 313l-962 1q-90 -144 -53 -341z" />
    <glyph glyph-name="bracketleft" unicode="[" horiz-adv-x="569" 
 />
    <glyph glyph-name="backslash" unicode="\" horiz-adv-x="602" 
d="M187 1805q-90 38 -172 -51l419 -2102q123 -65 180 52z" />
    <glyph glyph-name="bracketright" unicode="]" horiz-adv-x="569" 
 />
    <glyph glyph-name="asciicircum" unicode="^" horiz-adv-x="961" 
 />
    <glyph glyph-name="underscore" unicode="_" 
 />
    <glyph glyph-name="grave" unicode="`" horiz-adv-x="682" 
 />
    <glyph glyph-name="a" unicode="a" horiz-adv-x="1338" 
d="M579 1461l-524 -1461q109 -93 332 -63l92 270l371 46l72 -268q219 -42 356 48l-400 1440q-141 87 -299 -12zM794 533l-244 -29l157 492z" />
    <glyph glyph-name="b" unicode="b" horiz-adv-x="1343" 
d="M182 1374l-127 -1398l10 -36q11 -36 59 -30l48 7q397 -16 793 43q115 3 200 115.5t78.5 315.5t-223.5 312q180 83 221.5 256t-8.5 318t-248 178.5t-696 -13.5zM925 1115.5q45 -88.5 1 -206.5t-462 -106l36 360q380 41 425 -47.5zM898 498.5q54 -87.5 13.5 -191
t-517.5 -98.5l37 345q413 32 467 -55.5z" />
    <glyph glyph-name="c" unicode="c" horiz-adv-x="1275" 
d="M1180 1319q35 -180 -94 -288q-87 56 -273 89q-163 16 -266 -94.5t-126 -286.5q-34 -111 42 -285q76 -158 231.5 -167t372.5 61q78 -154 15 -302q-257 -118 -417 -112q-295 37 -430 214q-180 237 -122 669q46 342 217 517q223 181 541 148q221 -14 309 -163z" />
    <glyph glyph-name="d" unicode="d" horiz-adv-x="1234" 
d="M102 1324l16 120l100 23l384 -11q572 -103 568 -701q-13 -305 -146 -516q-164 -281 -834 -281l-114 32l-21 138zM412 1155l-40 -881q259 -17 365 89t120.5 331.5t-59 341t-386.5 119.5z" />
    <glyph glyph-name="e" unicode="e" horiz-adv-x="1242" 
d="M192 1437q-36 -17 -47 -56l-90 -1371q10 -55 53 -63l935 37q106 155 23 332l-671 -20l27 310l547 23q87 130 12 276l-537 -11l18 256l654 21q66 137 17 294z" />
    <glyph glyph-name="f" unicode="f" horiz-adv-x="1240" 
d="M190 1437q-36 -17 -47 -56l-88 -1414q136 -86 327 -4l36 565l547 23q87 129 11 275l-536 -10l20 334l654 21q66 137 17 294z" />
    <glyph glyph-name="g" unicode="g" horiz-adv-x="1309" 
d="M1148 788q58 -33 84 -92l-40 -474q-99 -177 -250 -244q-135 -60 -279 -60q-251 0 -400 161q-208 227 -179 649q28 408 267 606q195 129 458 129q144 0 236 -30.5t195 -132.5q9 -176 -86 -288l-101 45q-119 71 -263 71q-191 -4 -278 -87.5t-110 -337.5q-17 -215 38 -328
q52 -158 247 -146q206 24 224 147l6 103l-207 2q-90 178 33 312z" />
    <glyph glyph-name="h" unicode="h" horiz-adv-x="1307" 
d="M141 1398l-86 -1405q110 -79 325 -24l36 610l469 20l-29 -611q138 -85 323 8l68 1423q-142 77 -296 2l-38 -521l-475 -24l29 559q-180 69 -326 -37z" />
    <glyph glyph-name="i" unicode="i" horiz-adv-x="578" 
d="M55 -18q141 -73 345 -15l118 1471q-176 51 -328 15z" />
    <glyph glyph-name="j" unicode="j" horiz-adv-x="1011" 
d="M631 1430q118 -1575 -472 -1003q-104 -71 -67 -287q121 -253 397 -210q203 20 326.5 194t135.5 967l-6 354q-165 53 -314 -15z" />
    <glyph glyph-name="k" unicode="k" horiz-adv-x="1214" 
d="M129 1454l-74 -1456q186 -86 329 -4l23 565l437 -580q142 -20 206.5 31t82.5 158l-500 606l521 521q-65 182 -254 169l-458 -463l29 453q-219 72 -342 0z" />
    <glyph glyph-name="l" unicode="l" horiz-adv-x="1145" 
d="M137 1433l-82 -1423q10 -55 53 -63l871 32q106 156 23 333l-600 -16l72 1157q-220 39 -337 -20z" />
    <glyph glyph-name="m" unicode="m" horiz-adv-x="1471" 
d="M156 1444l-101 -1484l323 -3l53 719l164 -674q59 -66 135 -28l306 696l-41 -710l325 3l91 1483q-134 35 -278 -2l-411 -842l-233 840q-208 57 -333 2z" />
    <glyph glyph-name="n" unicode="n" horiz-adv-x="1307" 
d="M141 1398l-86 -1405q110 -79 325 -24l56 818l447 -816q176 -70 278 22l86 1426q-142 77 -296 2l-48 -788l-476 807q-215 56 -286 -42z" />
    <glyph glyph-name="o" unicode="o" horiz-adv-x="1463" 
d="M1241 1251q162 -215 132 -544.5t-220 -543.5t-467.5 -214t-454 208.5t-147.5 535.5t237 550t483 223t437 -215zM538.5 983.5q-105.5 -107.5 -127.5 -286t74 -295.5t232 -110.5t228 118t107.5 279t-64.5 283.5t-212 117.5t-237.5 -106z" />
    <glyph glyph-name="p" unicode="p" horiz-adv-x="1350" 
d="M182 1374l-127 -1368q122 -104 327 -32l45 430l117 13l324 75q321 79 371.5 354.5t-3 425.5t-251.5 183.5t-696 -13.5zM925 1110.5q45 -96.5 -6.5 -236.5t-464.5 -168l46 456q380 45 425 -51.5z" />
    <glyph glyph-name="q" unicode="q" horiz-adv-x="1463" 
d="M1241 1251q162 -215 132 -544.5t-279 -629.5l76 -195l-293 -115l-84 213q-385 -31 -561.5 177.5t-147.5 535.5t237 550t483 223t437 -215zM538.5 983.5q-105.5 -107.5 -127.5 -286t74 -295.5t213 -113l-62 184l242 104l72 -170q87 114 102.5 281.5t-64.5 283.5
t-212 117.5t-237.5 -106z" />
    <glyph glyph-name="r" unicode="r" horiz-adv-x="1350" 
d="M182 1374l-127 -1368q122 -104 327 -32l47 473l117 12l351 -509q230 -70 328 127l-354 457q321 80 370 334t-4.5 404t-251.5 183.5t-696 -13.5zM925 1110.5q45 -96.5 -5 -215t-463 -146.5l43 413q380 45 425 -51.5z" />
    <glyph glyph-name="s" unicode="s" horiz-adv-x="1227" 
d="M120 121q-65 227 76 352q257 -151 373 -186q216 2 237 108q5 85 -132 164l-257 125q-241 128 -250 361q9 134 92.5 241t188 140.5t248.5 24.5q264 -16 463 -150q8 -189 -118 -329q-243 182 -389 170q-137 16 -145 -98q-5 -65 193 -168q227 -92 336.5 -211t97.5 -289
q-16 -230 -214 -353q-126 -88 -364 -73q-227 29 -436 171z" />
    <glyph glyph-name="t" unicode="t" horiz-adv-x="1357" 
d="M157 1434q-102 -131 9 -318l363 8l-65 -1148q181 -67 333 -2l54 1163l369 5q77 161 8 321z" />
    <glyph glyph-name="u" unicode="u" horiz-adv-x="1295" 
d="M135 1439q180 35 343 -5q-61 -794 -56.5 -922.5t53.5 -196t167.5 -67.5t163 73t56.5 191.5t41 924.5q146 37 332 2q-48 -1069 -107 -1201.5t-180 -214t-317 -81.5t-343.5 98.5t-190 285.5t37.5 1113z" />
    <glyph glyph-name="v" unicode="v" horiz-adv-x="1389" 
d="M1329 1453l-570 -1469q-179 -81 -341 -3l-363 1472q186 32 375 0l191 -1052l326 1052q185 30 382 0z" />
    <glyph glyph-name="w" unicode="w" horiz-adv-x="1553" 
d="M1244 -26l249 1470q-155 69 -307 17l-159 -876l-93 861q-118 45 -297 8l-205 -843l-41 856q-188 33 -336 -10l133 -1513q154 -33 319 5l235 874l137 -857q223 -47 365 8z" />
    <glyph glyph-name="x" unicode="x" horiz-adv-x="1313" 
d="M178 1318l298 -546l-421 -627q63 -170 283 -215l306 539l313 -553q177 19 296 178l-399 692l355 515q-117 158 -280 153l-245 -394l-211 410q-200 0 -295 -152z" />
    <glyph glyph-name="y" unicode="y" horiz-adv-x="1278" 
d="M55 1359l367 -685l-27 -711q139 -63 321 -2l29 705l473 700q-81 107 -293 96l-315 -510l-239 516q-215 14 -316 -109z" />
    <glyph glyph-name="z" unicode="z" horiz-adv-x="1350" 
d="M178 1125l604 6l-668 -896q-59 -204 40 -295l1021 4q61 182 -3 341l-617 -11l657 878q78 173 -19 313l-962 1q-90 -144 -53 -341z" />
    <glyph glyph-name="braceleft" unicode="{" horiz-adv-x="684" 
 />
    <glyph glyph-name="bar" unicode="|" horiz-adv-x="611" 
d="M304 1156q63 0 122.5 -32t93 -91.5t33.5 -125.5q0 -64 -33 -123.5t-92.5 -91.5t-123.5 -32q-66 0 -124.5 32t-91.5 91.5t-33 123.5q0 66 33.5 125.5t92.5 91.5t123 32z" />
    <glyph glyph-name="braceright" unicode="}" horiz-adv-x="684" 
 />
    <glyph glyph-name="asciitilde" unicode="~" horiz-adv-x="1196" 
 />
    <glyph glyph-name="exclamdown" unicode="&#xa1;" horiz-adv-x="626" 
d="M415 22l52 1047q-85 56 -214 13l-198 -1012q153 -107 360 -48zM403 1170q-41 0 -80 21t-61 60t-22 82q0 42 21.5 81t60.5 60t81 21q43 0 81.5 -21t60 -60t21.5 -81q0 -43 -22 -82t-60.5 -60t-80.5 -21z" />
    <glyph glyph-name="cent" unicode="&#xa2;" 
 />
    <glyph glyph-name="sterling" unicode="&#xa3;" horiz-adv-x="1222" 
d="M1027 965q108 71 82 287q-107 253 -386 210q-204 -20 -336 -194q-93 -122 -147 -548l-163 -11q-53 -159 14 -269l121 10q-6 -71 -11 -149l-2 -60l-137 -11q-58 -204 15 -344l1099 106q36 151 -15 327l-659 -53q2 113 8 210l308 27q33 119 -14 256l-265 -18
q104 616 488 224z" />
    <glyph glyph-name="currency" unicode="&#xa4;" 
 />
    <glyph glyph-name="yen" unicode="&#xa5;" horiz-adv-x="1278" 
d="M257 598q-58 -69 -35 -136h192l-3 -65h-154q-58 -69 -35 -136h184l-11 -298q139 -63 321 -2l12 300h179q48 67 35 136h-208l3 65h170q48 67 35 136h-200l3 68l473 700q-81 107 -293 96l-315 -510l-239 516q-215 14 -316 -109l367 -685l-3 -76h-162z" />
    <glyph glyph-name="brokenbar" unicode="&#xa6;" horiz-adv-x="532" 
 />
    <glyph glyph-name="section" unicode="&#xa7;" 
 />
    <glyph glyph-name="dieresis" unicode="&#xa8;" horiz-adv-x="682" 
 />
    <glyph glyph-name="copyright" unicode="&#xa9;" horiz-adv-x="1509" 
 />
    <glyph glyph-name="ordfeminine" unicode="&#xaa;" horiz-adv-x="758" 
 />
    <glyph glyph-name="guillemotleft" unicode="&#xab;" horiz-adv-x="735" 
d="M224 -60q123 -39 180 31l-202 594l211 633q-82 53 -172 30l-132 -389l-93 -274l93 -280zM488 -59q123 -39 180 31l-202 593l211 633q-82 53 -172 30l-132 -389l-93 -274l93 -280z" />
    <glyph glyph-name="logicalnot" unicode="&#xac;" horiz-adv-x="1196" 
 />
    <glyph glyph-name="registered" unicode="&#xae;" horiz-adv-x="1509" 
 />
    <glyph glyph-name="macron" unicode="&#xaf;" horiz-adv-x="1131" 
 />
    <glyph glyph-name="degree" unicode="&#xb0;" horiz-adv-x="819" 
 />
    <glyph glyph-name="plusminus" unicode="&#xb1;" horiz-adv-x="1124" 
 />
    <glyph glyph-name="uni00B2" unicode="&#xb2;" horiz-adv-x="682" 
 />
    <glyph glyph-name="uni00B3" unicode="&#xb3;" horiz-adv-x="682" 
 />
    <glyph glyph-name="acute" unicode="&#xb4;" horiz-adv-x="682" 
 />
    <glyph glyph-name="mu" unicode="&#xb5;" horiz-adv-x="1180" 
 />
    <glyph glyph-name="paragraph" unicode="&#xb6;" horiz-adv-x="1100" 
 />
    <glyph glyph-name="periodcentered" unicode="&#xb7;" horiz-adv-x="569" 
 />
    <glyph glyph-name="periodcentered" unicode="&#x2219;" horiz-adv-x="569" 
 />
    <glyph glyph-name="cedilla" unicode="&#xb8;" horiz-adv-x="682" 
 />
    <glyph glyph-name="uni00B9" unicode="&#xb9;" horiz-adv-x="682" 
 />
    <glyph glyph-name="ordmasculine" unicode="&#xba;" horiz-adv-x="748" 
 />
    <glyph glyph-name="guillemotright" unicode="&#xbb;" horiz-adv-x="735" 
d="M469 1221q-123 39 -180 -31l202 -594l-211 -632q82 -53 172 -30l132 388l93 274l-93 280zM205 1221q-123 39 -180 -31l202 -594l-211 -632q82 -53 172 -30l132 388l93 274l-93 280z" />
    <glyph glyph-name="onequarter" unicode="&#xbc;" horiz-adv-x="1708" 
 />
    <glyph glyph-name="onehalf" unicode="&#xbd;" horiz-adv-x="1708" 
 />
    <glyph glyph-name="threequarters" unicode="&#xbe;" horiz-adv-x="1708" 
 />
    <glyph glyph-name="questiondown" unicode="&#xbf;" horiz-adv-x="1029" 
d="M969 369q-28 189 -236 150q-65 -227 -231 -224q-122 20 -126 125.5t122 169.5q158 54 205 171.5t23 338.5q-109 58 -246 11q-8 -159 -54 -220q-64 -51 -189 -128q-170 -104 -176 -395.5t402 -362.5q371 20 506 364zM618 1216q-41 0 -80 21t-61 60t-22 82q0 42 21.5 81
t60.5 60t81 21q43 0 81.5 -21t60 -60t21.5 -81q0 -43 -22 -82t-60.5 -60t-80.5 -21z" />
    <glyph glyph-name="Agrave" unicode="&#xc0;" horiz-adv-x="1338" 
d="M579 1461l-524 -1461q109 -93 332 -63l92 270l371 46l72 -268q219 -42 356 48l-400 1440q-141 87 -299 -12zM794 533l-244 -29l157 492zM514 1851l373 -138q21 -104 -52 -163l-366 136q-2 86 45 165z" />
    <glyph glyph-name="Aacute" unicode="&#xc1;" horiz-adv-x="1338" 
d="M579 1461l-524 -1461q109 -93 332 -63l92 270l371 46l72 -268q219 -42 356 48l-400 1440q-141 87 -299 -12zM794 533l-244 -29l157 492zM1079 1685l-366 -136q-72 59 -51 164l373 138q47 -79 44 -166z" />
    <glyph glyph-name="Acircumflex" unicode="&#xc2;" horiz-adv-x="1338" 
d="M579 1461l-524 -1461q109 -93 332 -63l92 270l371 46l72 -268q219 -42 356 48l-400 1440q-141 87 -299 -12zM794 533l-244 -29l157 492zM657 1759q31 46 85 80l23 -21q21 -17 38 -37l157 -147q-23 -89 -108 -109l-110 105l-114 -108q-84 20 -107 108z" />
    <glyph glyph-name="Atilde" unicode="&#xc3;" horiz-adv-x="1338" 
d="M579 1461l-524 -1461q109 -93 332 -63l92 270l371 46l72 -268q219 -42 356 48l-400 1440q-141 87 -299 -12zM794 533l-244 -29l157 492zM935 1607q-102 -67 -178 -19l-54 24q-46 25 -82 -2q-31 -27 -53 -44l-126 35q39 87 123 152q72 54 133 51t120 -57q40 -32 68 -10
q45 10 70 43l76 -80q-34 -46 -97 -93z" />
    <glyph glyph-name="Adieresis" unicode="&#xc4;" horiz-adv-x="1338" 
d="M587 1461l-524 -1461q109 -93 332 -63l92 270l371 46l72 -268q219 -42 356 48l-400 1440q-141 87 -299 -12zM802 533l-244 -29l157 492zM591 1828q30 0 59 -16.5t45 -47.5t16 -65q0 -33 -16 -64t-44.5 -47.5t-59.5 -16.5q-32 0 -60 16.5t-44 47.5t-16 64q0 34 16 65
t44.5 47.5t59.5 16.5zM914 1824q30 0 59 -16.5t45 -47.5t16 -65q0 -33 -15.5 -64t-44.5 -47.5t-60 -16.5t-59.5 16.5t-44.5 47.5t-16 64q0 34 16.5 65t44.5 47.5t59 16.5z" />
    <glyph glyph-name="Aring" unicode="&#xc5;" horiz-adv-x="1338" 
d="M579 1461l-524 -1461q109 -93 332 -63l92 270l371 46l72 -268q219 -42 356 48l-400 1440q-141 87 -299 -12zM794 533l-244 -29l157 492zM743 1848q41 0 80 -20.5t61 -59t22 -80.5t-21.5 -80.5t-60.5 -59t-81 -20.5q-44 0 -82.5 20.5t-60 59t-21.5 80.5t22 80.5t60.5 59
t81.5 20.5zM694.5 1777q-22.5 -13 -35.5 -37.5t-13 -51.5q0 -26 13 -50.5t35.5 -37.5t47.5 -13t48 13t35.5 37.5t12.5 50.5q0 27 -13 51.5t-36 37.5t-47 13q-25 0 -47.5 -13z" />
    <glyph glyph-name="AE" unicode="&#xc6;" horiz-adv-x="1667" 
d="M751 48q10 -53 53 -61l753 35q106 155 23 332l-489 -20l27 310l365 23q87 130 12 276l-355 -11l18 256l472 21q66 137 17 294l-759 -28q-1 0 -2 -1q-115 40 -242 -39l-667 -1435q109 -93 366 -54l92 270l329 36zM785 564l-203 -27l233 523z" />
    <glyph glyph-name="Ccedilla" unicode="&#xc7;" horiz-adv-x="1275" 
d="M562 -47q-217 51 -327 195q-180 237 -122 669q46 342 217 517q223 181 541 148q221 -14 309 -163q35 -180 -94 -288q-87 56 -273 89q-163 16 -266 -94.5t-126 -286.5q-34 -111 42 -285q76 -158 231.5 -167t372.5 61q78 -154 15 -302q-237 -108 -391 -112q2 -2 3 -4
q28 -20 82 -50q73 -41 76 -154.5t-174 -141.5q-160 8 -218 142q12 74 102 59q28 -89 100 -88q52 8 54 49t-53 66q-68 21 -88 67q-13 29 -13 74z" />
    <glyph glyph-name="Egrave" unicode="&#xc8;" horiz-adv-x="1242" 
d="M207 1437q-36 -17 -47 -56l-90 -1371q10 -55 53 -63l935 37q106 155 23 332l-671 -20l27 310l547 23q87 130 12 276l-537 -11l18 256l654 21q66 137 17 294zM495 1849l335 -214q-2 -107 -85 -149l-329 211q17 85 79 152z" />
    <glyph glyph-name="Eacute" unicode="&#xc9;" horiz-adv-x="1242" 
d="M207 1437q-36 -17 -47 -56l-90 -1371q10 -55 53 -63l935 37q106 155 23 332l-671 -20l27 310l547 23q87 130 12 276l-537 -11l18 256l654 21q66 137 17 294zM917 1693l-329 -211q-83 42 -85 149l335 214q62 -67 79 -152z" />
    <glyph glyph-name="Ecircumflex" unicode="&#xca;" horiz-adv-x="1242" 
d="M192 1437q-36 -17 -47 -56l-90 -1371q10 -55 53 -63l935 37q106 155 23 332l-671 -20l27 310l547 23q87 130 12 276l-537 -11l18 256l654 21q66 137 17 294zM589 1742q31 46 85 80l23 -21q21 -17 38 -37l157 -147q-23 -89 -108 -109l-110 105l-114 -108q-84 20 -107 108z
" />
    <glyph glyph-name="Edieresis" unicode="&#xcb;" horiz-adv-x="1242" 
d="M192 1437q-36 -17 -47 -56l-90 -1371q10 -55 53 -63l935 37q106 155 23 332l-671 -20l27 310l547 23q87 130 12 276l-537 -11l18 256l654 21q66 137 17 294zM502 1824q30 0 59 -16.5t45 -47.5t16 -65q0 -33 -16 -64t-44.5 -47.5t-59.5 -16.5q-32 0 -60 16.5t-44 47.5
t-16 64q0 34 16 65t44.5 47.5t59.5 16.5zM825 1820q30 0 59 -16.5t45 -47.5t16 -65q0 -33 -15.5 -64t-44.5 -47.5t-60 -16.5t-59.5 16.5t-44.5 47.5t-16 64q0 34 16.5 65t44.5 47.5t59 16.5z" />
    <glyph glyph-name="Igrave" unicode="&#xcc;" horiz-adv-x="578" 
d="M55 -18q141 -73 345 -15l118 1471q-176 51 -328 15zM152 1849l335 -214q-2 -107 -85 -149l-329 211q17 85 79 152z" />
    <glyph glyph-name="Iacute" unicode="&#xcd;" horiz-adv-x="578" 
d="M55 -18q141 -73 345 -15l118 1471q-176 51 -328 15zM654 1697l-329 -211q-83 42 -85 149l335 214q62 -67 79 -152z" />
    <glyph glyph-name="Icircumflex" unicode="&#xce;" horiz-adv-x="578" 
d="M55 -18q141 -73 345 -15l118 1471q-176 51 -328 15zM287 1759q31 46 85 80l23 -21q21 -17 38 -37l157 -147q-23 -89 -108 -109l-110 105l-114 -108q-84 20 -107 108z" />
    <glyph glyph-name="Idieresis" unicode="&#xcf;" horiz-adv-x="578" 
d="M55 -18q141 -73 345 -15l118 1471q-176 51 -328 15zM209 1832q30 0 59 -16.5t45 -47.5t16 -65q0 -33 -16 -64t-44.5 -47.5t-59.5 -16.5q-32 0 -60 16.5t-44 47.5t-16 64q0 34 16 65t44.5 47.5t59.5 16.5zM532 1828q30 0 59 -16.5t45 -47.5t16 -65q0 -33 -15.5 -64
t-44.5 -47.5t-60 -16.5t-59.5 16.5t-44.5 47.5t-16 64q0 34 16.5 65t44.5 47.5t59 16.5z" />
    <glyph glyph-name="Eth" unicode="&#xd0;" horiz-adv-x="1479" 
 />
    <glyph glyph-name="Ntilde" unicode="&#xd1;" horiz-adv-x="1307" 
d="M141 1398l-86 -1405q110 -79 325 -24l56 818l447 -816q176 -70 278 22l86 1426q-142 77 -296 2l-48 -788l-476 807q-215 56 -286 -42zM914 1582q-102 -67 -178 -19l-54 24q-46 25 -82 -2q-31 -27 -53 -44l-126 35q39 87 123 152q72 54 133 51t120 -57q40 -32 68 -10
q45 10 70 43l76 -80q-34 -46 -97 -93z" />
    <glyph glyph-name="Ograve" unicode="&#xd2;" horiz-adv-x="1463" 
d="M1241 1251q162 -215 132 -544.5t-220 -543.5t-467.5 -214t-454 208.5t-147.5 535.5t237 550t483 223t437 -215zM538.5 983.5q-105.5 -107.5 -127.5 -286t74 -295.5t232 -110.5t228 118t107.5 279t-64.5 283.5t-212 117.5t-237.5 -106zM596 1854l335 -214
q-2 -107 -85 -149l-329 211q17 85 79 152z" />
    <glyph glyph-name="Oacute" unicode="&#xd3;" horiz-adv-x="1463" 
d="M1241 1251q162 -215 132 -544.5t-220 -543.5t-467.5 -214t-454 208.5t-147.5 535.5t237 550t483 223t437 -215zM538.5 983.5q-105.5 -107.5 -127.5 -286t74 -295.5t232 -110.5t228 118t107.5 279t-64.5 283.5t-212 117.5t-237.5 -106zM1173 1702l-329 -211
q-83 42 -85 149l335 214q62 -67 79 -152z" />
    <glyph glyph-name="Ocircumflex" unicode="&#xd4;" horiz-adv-x="1463" 
d="M1241 1251q162 -215 132 -544.5t-220 -543.5t-467.5 -214t-454 208.5t-147.5 535.5t237 550t483 223t437 -215zM538.5 983.5q-105.5 -107.5 -127.5 -286t74 -295.5t232 -110.5t228 118t107.5 279t-64.5 283.5t-212 117.5t-237.5 -106zM772 1755q31 46 85 80l23 -21
q21 -17 38 -37l157 -147q-23 -89 -108 -109l-110 105l-114 -108q-84 20 -107 108z" />
    <glyph glyph-name="Otilde" unicode="&#xd5;" horiz-adv-x="1463" 
d="M1241 1251q162 -215 132 -544.5t-220 -543.5t-467.5 -214t-454 208.5t-147.5 535.5t237 550t483 223t437 -215zM538.5 983.5q-105.5 -107.5 -127.5 -286t74 -295.5t232 -110.5t228 118t107.5 279t-64.5 283.5t-212 117.5t-237.5 -106zM1024 1602q-102 -67 -178 -19
l-54 24q-46 25 -82 -2q-31 -27 -53 -44l-126 35q39 87 123 152q72 54 133 51t120 -57q40 -32 68 -10q45 10 70 43l76 -80q-34 -46 -97 -93z" />
    <glyph glyph-name="Odieresis" unicode="&#xd6;" horiz-adv-x="1463" 
d="M1241 1251q162 -215 132 -544.5t-220 -543.5t-467.5 -214t-454 208.5t-147.5 535.5t237 550t483 223t437 -215zM538.5 983.5q-105.5 -107.5 -127.5 -286t74 -295.5t232 -110.5t228 118t107.5 279t-64.5 283.5t-212 117.5t-237.5 -106zM660 1840q30 0 59 -16.5t45 -47.5
t16 -65q0 -33 -16 -64t-44.5 -47.5t-59.5 -16.5q-32 0 -60 16.5t-44 47.5t-16 64q0 34 16 65t44.5 47.5t59.5 16.5zM983 1836q30 0 59 -16.5t45 -47.5t16 -65q0 -33 -15.5 -64t-44.5 -47.5t-60 -16.5t-59.5 16.5t-44.5 47.5t-16 64q0 34 16.5 65t44.5 47.5t59 16.5z" />
    <glyph glyph-name="multiply" unicode="&#xd7;" horiz-adv-x="1196" 
 />
    <glyph glyph-name="Oslash" unicode="&#xd8;" horiz-adv-x="1463" 
d="M870 1071q-43 18 -94 19q-132 1 -237.5 -106.5t-127.5 -285.5q-19 -151 47 -258zM595 314q57 -26 122 -22q136 6 228 117.5t108 279.5q13 149 -49 257zM1219 1278q11 -13 22 -27q162 -215 132 -544.5t-220 -543.5t-467 -214q-158 0 -283 67l-170 -262q-138 -15 -148 116
l170 261q-12 13 -23 27q-177 208 -148 535t237 550t483 223q157 0 278 -70l175 268q98 3 141 -110z" />
    <glyph glyph-name="Ugrave" unicode="&#xd9;" horiz-adv-x="1295" 
d="M135 1439q180 35 343 -5q-61 -794 -56.5 -922.5t53.5 -196t167.5 -67.5t163 73t56.5 191.5t41 924.5q146 37 332 2q-48 -1069 -107 -1201.5t-180 -214t-317 -81.5t-343.5 98.5t-190 285.5t37.5 1113zM545 1849l335 -214q-2 -107 -85 -149l-329 211q17 85 79 152z" />
    <glyph glyph-name="Uacute" unicode="&#xda;" horiz-adv-x="1295" 
d="M135 1439q180 35 343 -5q-61 -794 -56.5 -922.5t53.5 -196t167.5 -67.5t163 73t56.5 191.5t41 924.5q146 37 332 2q-48 -1069 -107 -1201.5t-180 -214t-317 -81.5t-343.5 98.5t-190 285.5t37.5 1113zM967 1693l-329 -211q-83 42 -85 149l335 214q62 -67 79 -152z" />
    <glyph glyph-name="Ucircumflex" unicode="&#xdb;" horiz-adv-x="1295" 
d="M135 1439q180 35 343 -5q-61 -794 -56.5 -922.5t53.5 -196t167.5 -67.5t163 73t56.5 191.5t41 924.5q146 37 332 2q-48 -1069 -107 -1201.5t-180 -214t-317 -81.5t-343.5 98.5t-190 285.5t37.5 1113zM633 1759q31 46 85 80l23 -21q21 -17 38 -37l157 -147
q-23 -89 -108 -109l-110 105l-114 -108q-84 20 -107 108z" />
    <glyph glyph-name="Udieresis" unicode="&#xdc;" horiz-adv-x="1295" 
d="M135 1439q180 35 343 -5q-61 -794 -56.5 -922.5t53.5 -196t167.5 -67.5t163 73t56.5 191.5t41 924.5q146 37 332 2q-48 -1069 -107 -1201.5t-180 -214t-317 -81.5t-343.5 98.5t-190 285.5t37.5 1113zM547 1816q30 0 59 -16.5t45 -47.5t16 -65q0 -33 -16 -64t-44.5 -47.5
t-59.5 -16.5q-32 0 -60 16.5t-44 47.5t-16 64q0 34 16 65t44.5 47.5t59.5 16.5zM870 1812q30 0 59 -16.5t45 -47.5t16 -65q0 -33 -15.5 -64t-44.5 -47.5t-60 -16.5t-59.5 16.5t-44.5 47.5t-16 64q0 34 16.5 65t44.5 47.5t59 16.5z" />
    <glyph glyph-name="Yacute" unicode="&#xdd;" horiz-adv-x="1366" 
 />
    <glyph glyph-name="Thorn" unicode="&#xde;" horiz-adv-x="1366" 
 />
    <glyph glyph-name="germandbls" unicode="&#xdf;" horiz-adv-x="1247" 
d="M727 1156q106 -161 -120 -211q-92 -161 21 -288q256 -38 230 -170.5t-98 -167.5t-181 -22q-38 4 -77.5 -87t-20 -159.5t119.5 -100.5q349 35 451.5 180t116 315.5t-43.5 300.5t-209 154q256 139 112.5 415.5t-800.5 148.5q-64 -21 -58 -147l-92 -1326q107 -82 311 -24
l97 1247q193 9 241 -58z" />
    <glyph glyph-name="agrave" unicode="&#xe0;" horiz-adv-x="1338" 
d="M579 1461l-524 -1461q109 -93 332 -63l92 270l371 46l72 -268q219 -42 356 48l-400 1440q-141 87 -299 -12zM794 533l-244 -29l157 492zM514 1851l373 -138q21 -104 -52 -163l-366 136q-2 86 45 165z" />
    <glyph glyph-name="aacute" unicode="&#xe1;" horiz-adv-x="1338" 
d="M579 1461l-524 -1461q109 -93 332 -63l92 270l371 46l72 -268q219 -42 356 48l-400 1440q-141 87 -299 -12zM794 533l-244 -29l157 492zM1079 1685l-366 -136q-72 59 -51 164l373 138q47 -79 44 -166z" />
    <glyph glyph-name="acircumflex" unicode="&#xe2;" horiz-adv-x="1338" 
d="M579 1461l-524 -1461q109 -93 332 -63l92 270l371 46l72 -268q219 -42 356 48l-400 1440q-141 87 -299 -12zM794 533l-244 -29l157 492zM657 1759q31 46 85 80l23 -21q21 -17 38 -37l157 -147q-23 -89 -108 -109l-110 105l-114 -108q-84 20 -107 108z" />
    <glyph glyph-name="atilde" unicode="&#xe3;" horiz-adv-x="1338" 
d="M579 1461l-524 -1461q109 -93 332 -63l92 270l371 46l72 -268q219 -42 356 48l-400 1440q-141 87 -299 -12zM794 533l-244 -29l157 492zM935 1607q-102 -67 -178 -19l-54 24q-46 25 -82 -2q-31 -27 -53 -44l-126 35q39 87 123 152q72 54 133 51t120 -57q40 -32 68 -10
q45 10 70 43l76 -80q-34 -46 -97 -93z" />
    <glyph glyph-name="adieresis" unicode="&#xe4;" horiz-adv-x="1338" 
d="M587 1461l-524 -1461q109 -93 332 -63l92 270l371 46l72 -268q219 -42 356 48l-400 1440q-141 87 -299 -12zM802 533l-244 -29l157 492zM591 1828q30 0 59 -16.5t45 -47.5t16 -65q0 -33 -16 -64t-44.5 -47.5t-59.5 -16.5q-32 0 -60 16.5t-44 47.5t-16 64q0 34 16 65
t44.5 47.5t59.5 16.5zM914 1824q30 0 59 -16.5t45 -47.5t16 -65q0 -33 -15.5 -64t-44.5 -47.5t-60 -16.5t-59.5 16.5t-44.5 47.5t-16 64q0 34 16.5 65t44.5 47.5t59 16.5z" />
    <glyph glyph-name="aring" unicode="&#xe5;" horiz-adv-x="1338" 
d="M579 1461l-524 -1461q109 -93 332 -63l92 270l371 46l72 -268q219 -42 356 48l-400 1440q-141 87 -299 -12zM794 533l-244 -29l157 492zM743 1848q41 0 80 -20.5t61 -59t22 -80.5t-21.5 -80.5t-60.5 -59t-81 -20.5q-44 0 -82.5 20.5t-60 59t-21.5 80.5t22 80.5t60.5 59
t81.5 20.5zM694.5 1777q-22.5 -13 -35.5 -37.5t-13 -51.5q0 -26 13 -50.5t35.5 -37.5t47.5 -13t48 13t35.5 37.5t12.5 50.5q0 27 -13 51.5t-36 37.5t-47 13q-25 0 -47.5 -13z" />
    <glyph glyph-name="ae" unicode="&#xe6;" horiz-adv-x="1667" 
d="M751 48q10 -53 53 -61l753 35q106 155 23 332l-489 -20l27 310l365 23q87 130 12 276l-355 -11l18 256l472 21q66 137 17 294l-759 -28q-1 0 -2 -1q-115 40 -242 -39l-667 -1435q109 -93 366 -54l92 270l329 36zM785 564l-203 -27l233 523z" />
    <glyph glyph-name="ccedilla" unicode="&#xe7;" horiz-adv-x="1275" 
d="M562 -47q-217 51 -327 195q-180 237 -122 669q46 342 217 517q223 181 541 148q221 -14 309 -163q35 -180 -94 -288q-87 56 -273 89q-163 16 -266 -94.5t-126 -286.5q-34 -111 42 -285q76 -158 231.5 -167t372.5 61q78 -154 15 -302q-237 -108 -391 -112q2 -2 3 -4
q28 -20 82 -50q73 -41 76 -154.5t-174 -141.5q-160 8 -218 142q12 74 102 59q28 -89 100 -88q52 8 54 49t-53 66q-68 21 -88 67q-13 29 -13 74z" />
    <glyph glyph-name="egrave" unicode="&#xe8;" horiz-adv-x="1242" 
d="M207 1437q-36 -17 -47 -56l-90 -1371q10 -55 53 -63l935 37q106 155 23 332l-671 -20l27 310l547 23q87 130 12 276l-537 -11l18 256l654 21q66 137 17 294zM495 1849l335 -214q-2 -107 -85 -149l-329 211q17 85 79 152z" />
    <glyph glyph-name="eacute" unicode="&#xe9;" horiz-adv-x="1242" 
d="M207 1437q-36 -17 -47 -56l-90 -1371q10 -55 53 -63l935 37q106 155 23 332l-671 -20l27 310l547 23q87 130 12 276l-537 -11l18 256l654 21q66 137 17 294zM917 1693l-329 -211q-83 42 -85 149l335 214q62 -67 79 -152z" />
    <glyph glyph-name="ecircumflex" unicode="&#xea;" horiz-adv-x="1242" 
d="M192 1437q-36 -17 -47 -56l-90 -1371q10 -55 53 -63l935 37q106 155 23 332l-671 -20l27 310l547 23q87 130 12 276l-537 -11l18 256l654 21q66 137 17 294zM589 1742q31 46 85 80l23 -21q21 -17 38 -37l157 -147q-23 -89 -108 -109l-110 105l-114 -108q-84 20 -107 108z
" />
    <glyph glyph-name="edieresis" unicode="&#xeb;" horiz-adv-x="1242" 
d="M192 1437q-36 -17 -47 -56l-90 -1371q10 -55 53 -63l935 37q106 155 23 332l-671 -20l27 310l547 23q87 130 12 276l-537 -11l18 256l654 21q66 137 17 294zM502 1824q30 0 59 -16.5t45 -47.5t16 -65q0 -33 -16 -64t-44.5 -47.5t-59.5 -16.5q-32 0 -60 16.5t-44 47.5
t-16 64q0 34 16 65t44.5 47.5t59.5 16.5zM825 1820q30 0 59 -16.5t45 -47.5t16 -65q0 -33 -15.5 -64t-44.5 -47.5t-60 -16.5t-59.5 16.5t-44.5 47.5t-16 64q0 34 16.5 65t44.5 47.5t59 16.5z" />
    <glyph glyph-name="igrave" unicode="&#xec;" horiz-adv-x="578" 
d="M55 -18q141 -73 345 -15l118 1471q-176 51 -328 15zM152 1849l335 -214q-2 -107 -85 -149l-329 211q17 85 79 152z" />
    <glyph glyph-name="iacute" unicode="&#xed;" horiz-adv-x="578" 
d="M55 -18q141 -73 345 -15l118 1471q-176 51 -328 15zM654 1697l-329 -211q-83 42 -85 149l335 214q62 -67 79 -152z" />
    <glyph glyph-name="icircumflex" unicode="&#xee;" horiz-adv-x="578" 
d="M55 -18q141 -73 345 -15l118 1471q-176 51 -328 15zM287 1759q31 46 85 80l23 -21q21 -17 38 -37l157 -147q-23 -89 -108 -109l-110 105l-114 -108q-84 20 -107 108z" />
    <glyph glyph-name="idieresis" unicode="&#xef;" horiz-adv-x="578" 
d="M55 -18q141 -73 345 -15l118 1471q-176 51 -328 15zM209 1832q30 0 59 -16.5t45 -47.5t16 -65q0 -33 -16 -64t-44.5 -47.5t-59.5 -16.5q-32 0 -60 16.5t-44 47.5t-16 64q0 34 16 65t44.5 47.5t59.5 16.5zM532 1828q30 0 59 -16.5t45 -47.5t16 -65q0 -33 -15.5 -64
t-44.5 -47.5t-60 -16.5t-59.5 16.5t-44.5 47.5t-16 64q0 34 16.5 65t44.5 47.5t59 16.5z" />
    <glyph glyph-name="eth" unicode="&#xf0;" 
 />
    <glyph glyph-name="ntilde" unicode="&#xf1;" horiz-adv-x="1307" 
d="M141 1398l-86 -1405q110 -79 325 -24l56 818l447 -816q176 -70 278 22l86 1426q-142 77 -296 2l-48 -788l-476 807q-215 56 -286 -42zM914 1582q-102 -67 -178 -19l-54 24q-46 25 -82 -2q-31 -27 -53 -44l-126 35q39 87 123 152q72 54 133 51t120 -57q40 -32 68 -10
q45 10 70 43l76 -80q-34 -46 -97 -93z" />
    <glyph glyph-name="ograve" unicode="&#xf2;" horiz-adv-x="1463" 
d="M1241 1251q162 -215 132 -544.5t-220 -543.5t-467.5 -214t-454 208.5t-147.5 535.5t237 550t483 223t437 -215zM538.5 983.5q-105.5 -107.5 -127.5 -286t74 -295.5t232 -110.5t228 118t107.5 279t-64.5 283.5t-212 117.5t-237.5 -106zM596 1854l335 -214
q-2 -107 -85 -149l-329 211q17 85 79 152z" />
    <glyph glyph-name="oacute" unicode="&#xf3;" horiz-adv-x="1463" 
d="M1241 1251q162 -215 132 -544.5t-220 -543.5t-467.5 -214t-454 208.5t-147.5 535.5t237 550t483 223t437 -215zM538.5 983.5q-105.5 -107.5 -127.5 -286t74 -295.5t232 -110.5t228 118t107.5 279t-64.5 283.5t-212 117.5t-237.5 -106zM1173 1702l-329 -211
q-83 42 -85 149l335 214q62 -67 79 -152z" />
    <glyph glyph-name="ocircumflex" unicode="&#xf4;" horiz-adv-x="1463" 
d="M1241 1251q162 -215 132 -544.5t-220 -543.5t-467.5 -214t-454 208.5t-147.5 535.5t237 550t483 223t437 -215zM538.5 983.5q-105.5 -107.5 -127.5 -286t74 -295.5t232 -110.5t228 118t107.5 279t-64.5 283.5t-212 117.5t-237.5 -106zM772 1755q31 46 85 80l23 -21
q21 -17 38 -37l157 -147q-23 -89 -108 -109l-110 105l-114 -108q-84 20 -107 108z" />
    <glyph glyph-name="otilde" unicode="&#xf5;" horiz-adv-x="1463" 
d="M1241 1251q162 -215 132 -544.5t-220 -543.5t-467.5 -214t-454 208.5t-147.5 535.5t237 550t483 223t437 -215zM538.5 983.5q-105.5 -107.5 -127.5 -286t74 -295.5t232 -110.5t228 118t107.5 279t-64.5 283.5t-212 117.5t-237.5 -106zM1024 1602q-102 -67 -178 -19
l-54 24q-46 25 -82 -2q-31 -27 -53 -44l-126 35q39 87 123 152q72 54 133 51t120 -57q40 -32 68 -10q45 10 70 43l76 -80q-34 -46 -97 -93z" />
    <glyph glyph-name="odieresis" unicode="&#xf6;" horiz-adv-x="1463" 
d="M1241 1251q162 -215 132 -544.5t-220 -543.5t-467.5 -214t-454 208.5t-147.5 535.5t237 550t483 223t437 -215zM538.5 983.5q-105.5 -107.5 -127.5 -286t74 -295.5t232 -110.5t228 118t107.5 279t-64.5 283.5t-212 117.5t-237.5 -106zM660 1840q30 0 59 -16.5t45 -47.5
t16 -65q0 -33 -16 -64t-44.5 -47.5t-59.5 -16.5q-32 0 -60 16.5t-44 47.5t-16 64q0 34 16 65t44.5 47.5t59.5 16.5zM983 1836q30 0 59 -16.5t45 -47.5t16 -65q0 -33 -15.5 -64t-44.5 -47.5t-60 -16.5t-59.5 16.5t-44.5 47.5t-16 64q0 34 16.5 65t44.5 47.5t59 16.5z" />
    <glyph glyph-name="divide" unicode="&#xf7;" horiz-adv-x="1124" 
 />
    <glyph glyph-name="oslash" unicode="&#xf8;" horiz-adv-x="1463" 
d="M870 1071q-43 18 -94 19q-132 1 -237.5 -106.5t-127.5 -285.5q-19 -151 47 -258zM595 314q57 -26 122 -22q136 6 228 117.5t108 279.5q13 149 -49 257zM1219 1278q11 -13 22 -27q162 -215 132 -544.5t-220 -543.5t-467 -214q-158 0 -283 67l-170 -262q-138 -15 -148 116
l170 261q-12 13 -23 27q-177 208 -148 535t237 550t483 223q157 0 278 -70l175 268q98 3 141 -110z" />
    <glyph glyph-name="ugrave" unicode="&#xf9;" horiz-adv-x="1295" 
d="M135 1439q180 35 343 -5q-61 -794 -56.5 -922.5t53.5 -196t167.5 -67.5t163 73t56.5 191.5t41 924.5q146 37 332 2q-48 -1069 -107 -1201.5t-180 -214t-317 -81.5t-343.5 98.5t-190 285.5t37.5 1113zM545 1849l335 -214q-2 -107 -85 -149l-329 211q17 85 79 152z" />
    <glyph glyph-name="uacute" unicode="&#xfa;" horiz-adv-x="1295" 
d="M135 1439q180 35 343 -5q-61 -794 -56.5 -922.5t53.5 -196t167.5 -67.5t163 73t56.5 191.5t41 924.5q146 37 332 2q-48 -1069 -107 -1201.5t-180 -214t-317 -81.5t-343.5 98.5t-190 285.5t37.5 1113zM967 1693l-329 -211q-83 42 -85 149l335 214q62 -67 79 -152z" />
    <glyph glyph-name="ucircumflex" unicode="&#xfb;" horiz-adv-x="1295" 
d="M135 1439q180 35 343 -5q-61 -794 -56.5 -922.5t53.5 -196t167.5 -67.5t163 73t56.5 191.5t41 924.5q146 37 332 2q-48 -1069 -107 -1201.5t-180 -214t-317 -81.5t-343.5 98.5t-190 285.5t37.5 1113zM633 1759q31 46 85 80l23 -21q21 -17 38 -37l157 -147
q-23 -89 -108 -109l-110 105l-114 -108q-84 20 -107 108z" />
    <glyph glyph-name="udieresis" unicode="&#xfc;" horiz-adv-x="1295" 
d="M135 1439q180 35 343 -5q-61 -794 -56.5 -922.5t53.5 -196t167.5 -67.5t163 73t56.5 191.5t41 924.5q146 37 332 2q-48 -1069 -107 -1201.5t-180 -214t-317 -81.5t-343.5 98.5t-190 285.5t37.5 1113zM547 1816q30 0 59 -16.5t45 -47.5t16 -65q0 -33 -16 -64t-44.5 -47.5
t-59.5 -16.5q-32 0 -60 16.5t-44 47.5t-16 64q0 34 16 65t44.5 47.5t59.5 16.5zM870 1812q30 0 59 -16.5t45 -47.5t16 -65q0 -33 -15.5 -64t-44.5 -47.5t-60 -16.5t-59.5 16.5t-44.5 47.5t-16 64q0 34 16.5 65t44.5 47.5t59 16.5z" />
    <glyph glyph-name="yacute" unicode="&#xfd;" horiz-adv-x="1024" 
 />
    <glyph glyph-name="thorn" unicode="&#xfe;" 
 />
    <glyph glyph-name="ydieresis" unicode="&#xff;" horiz-adv-x="1278" 
d="M55 1359l367 -685l-27 -711q139 -63 321 -2l29 705l473 700q-81 107 -293 96l-315 -510l-239 516q-215 14 -316 -109zM479 1816q30 0 59 -16.5t45 -47.5t16 -65q0 -33 -16 -64t-44.5 -47.5t-59.5 -16.5q-32 0 -60 16.5t-44 47.5t-16 64q0 34 16 65t44.5 47.5t59.5 16.5z
M802 1812q30 0 59 -16.5t45 -47.5t16 -65q0 -33 -15.5 -64t-44.5 -47.5t-60 -16.5t-59.5 16.5t-44.5 47.5t-16 64q0 34 16.5 65t44.5 47.5t59 16.5z" />
    <glyph glyph-name="Amacron" unicode="&#x100;" horiz-adv-x="1366" 
 />
    <glyph glyph-name="amacron" unicode="&#x101;" 
 />
    <glyph glyph-name="Abreve" unicode="&#x102;" horiz-adv-x="1366" 
 />
    <glyph glyph-name="abreve" unicode="&#x103;" 
 />
    <glyph glyph-name="Aogonek" unicode="&#x104;" horiz-adv-x="1366" 
 />
    <glyph glyph-name="aogonek" unicode="&#x105;" 
 />
    <glyph glyph-name="Cacute" unicode="&#x106;" horiz-adv-x="1479" 
 />
    <glyph glyph-name="cacute" unicode="&#x107;" horiz-adv-x="1024" 
 />
    <glyph glyph-name="Ccircumflex" unicode="&#x108;" horiz-adv-x="1479" 
 />
    <glyph glyph-name="ccircumflex" unicode="&#x109;" horiz-adv-x="1024" 
 />
    <glyph glyph-name="Cdotaccent" unicode="&#x10a;" horiz-adv-x="1479" 
 />
    <glyph glyph-name="cdotaccent" unicode="&#x10b;" horiz-adv-x="1024" 
 />
    <glyph glyph-name="Ccaron" unicode="&#x10c;" horiz-adv-x="1479" 
 />
    <glyph glyph-name="ccaron" unicode="&#x10d;" horiz-adv-x="1024" 
 />
    <glyph glyph-name="Dcaron" unicode="&#x10e;" horiz-adv-x="1479" 
 />
    <glyph glyph-name="dcaron" unicode="&#x10f;" horiz-adv-x="1259" 
 />
    <glyph glyph-name="Dcroat" unicode="&#x110;" horiz-adv-x="1479" 
 />
    <glyph glyph-name="dcroat" unicode="&#x111;" 
 />
    <glyph glyph-name="Emacron" unicode="&#x112;" horiz-adv-x="1366" 
 />
    <glyph glyph-name="emacron" unicode="&#x113;" 
 />
    <glyph glyph-name="Ebreve" unicode="&#x114;" horiz-adv-x="1366" 
 />
    <glyph glyph-name="ebreve" unicode="&#x115;" 
 />
    <glyph glyph-name="Edotaccent" unicode="&#x116;" horiz-adv-x="1366" 
 />
    <glyph glyph-name="edotaccent" unicode="&#x117;" 
 />
    <glyph glyph-name="Eogonek" unicode="&#x118;" horiz-adv-x="1366" 
 />
    <glyph glyph-name="eogonek" unicode="&#x119;" 
 />
    <glyph glyph-name="Ecaron" unicode="&#x11a;" horiz-adv-x="1366" 
 />
    <glyph glyph-name="ecaron" unicode="&#x11b;" 
 />
    <glyph glyph-name="Gcircumflex" unicode="&#x11c;" horiz-adv-x="1593" 
 />
    <glyph glyph-name="gcircumflex" unicode="&#x11d;" 
 />
    <glyph glyph-name="Gbreve" unicode="&#x11e;" horiz-adv-x="1593" 
 />
    <glyph glyph-name="gbreve" unicode="&#x11f;" 
 />
    <glyph glyph-name="Gdotaccent" unicode="&#x120;" horiz-adv-x="1593" 
 />
    <glyph glyph-name="gdotaccent" unicode="&#x121;" 
 />
    <glyph glyph-name="Gcommaaccent" unicode="&#x122;" horiz-adv-x="1593" 
 />
    <glyph glyph-name="gcommaaccent" unicode="&#x123;" 
 />
    <glyph glyph-name="Hcircumflex" unicode="&#x124;" horiz-adv-x="1479" 
 />
    <glyph glyph-name="hcircumflex" unicode="&#x125;" 
 />
    <glyph glyph-name="Hbar" unicode="&#x126;" horiz-adv-x="1479" 
 />
    <glyph glyph-name="hbar" unicode="&#x127;" 
 />
    <glyph glyph-name="Itilde" unicode="&#x128;" horiz-adv-x="569" 
 />
    <glyph glyph-name="itilde" unicode="&#x129;" horiz-adv-x="569" 
 />
    <glyph glyph-name="Imacron" unicode="&#x12a;" horiz-adv-x="569" 
 />
    <glyph glyph-name="imacron" unicode="&#x12b;" horiz-adv-x="569" 
 />
    <glyph glyph-name="Ibreve" unicode="&#x12c;" horiz-adv-x="569" 
 />
    <glyph glyph-name="ibreve" unicode="&#x12d;" horiz-adv-x="569" 
 />
    <glyph glyph-name="Iogonek" unicode="&#x12e;" horiz-adv-x="569" 
 />
    <glyph glyph-name="iogonek" unicode="&#x12f;" horiz-adv-x="455" 
 />
    <glyph glyph-name="Idotaccent" unicode="&#x130;" horiz-adv-x="569" 
 />
    <glyph glyph-name="dotlessi" unicode="&#x131;" horiz-adv-x="569" 
 />
    <glyph glyph-name="IJ" unicode="&#x132;" horiz-adv-x="1394" 
d="M0 -18q141 -73 345 -15l118 1471q-176 51 -328 15zM963 1430q118 -1575 -472 -1003q-104 -71 -67 -287q121 -253 397 -210q203 20 326.5 194t135.5 967l-6 354q-165 53 -314 -15z" />
    <glyph glyph-name="ij" unicode="&#x133;" horiz-adv-x="1394" 
d="M0 -18q141 -73 345 -15l118 1471q-176 51 -328 15zM963 1430q118 -1574 -472 -1003q-104 -71 -67 -287q121 -252 397 -209q203 20 326.5 193.5t135.5 966.5l-6 354q-165 53 -314 -15z" />
    <glyph glyph-name="Jcircumflex" unicode="&#x134;" horiz-adv-x="1024" 
 />
    <glyph glyph-name="jcircumflex" unicode="&#x135;" horiz-adv-x="455" 
 />
    <glyph glyph-name="Kcommaaccent" unicode="&#x136;" horiz-adv-x="1366" 
 />
    <glyph glyph-name="kcommaaccent" unicode="&#x137;" horiz-adv-x="1024" 
 />
    <glyph glyph-name="kgreenlandic" unicode="&#x138;" horiz-adv-x="1024" 
 />
    <glyph glyph-name="Lacute" unicode="&#x139;" 
 />
    <glyph glyph-name="lacute" unicode="&#x13a;" horiz-adv-x="455" 
 />
    <glyph glyph-name="Lcommaaccent" unicode="&#x13b;" 
 />
    <glyph glyph-name="lcommaaccent" unicode="&#x13c;" horiz-adv-x="455" 
 />
    <glyph glyph-name="Lcaron" unicode="&#x13d;" 
 />
    <glyph glyph-name="lcaron" unicode="&#x13e;" horiz-adv-x="597" 
 />
    <glyph glyph-name="Ldot" unicode="&#x13f;" 
 />
    <glyph glyph-name="ldot" unicode="&#x140;" horiz-adv-x="684" 
 />
    <glyph glyph-name="Lslash" unicode="&#x141;" 
 />
    <glyph glyph-name="lslash" unicode="&#x142;" horiz-adv-x="455" 
 />
    <glyph glyph-name="Nacute" unicode="&#x143;" horiz-adv-x="1479" 
 />
    <glyph glyph-name="nacute" unicode="&#x144;" 
 />
    <glyph glyph-name="Ncommaaccent" unicode="&#x145;" horiz-adv-x="1479" 
 />
    <glyph glyph-name="ncommaaccent" unicode="&#x146;" 
 />
    <glyph glyph-name="Ncaron" unicode="&#x147;" horiz-adv-x="1479" 
 />
    <glyph glyph-name="ncaron" unicode="&#x148;" 
 />
    <glyph glyph-name="napostrophe" unicode="&#x149;" horiz-adv-x="1237" 
 />
    <glyph glyph-name="Eng" unicode="&#x14a;" horiz-adv-x="1481" 
 />
    <glyph glyph-name="eng" unicode="&#x14b;" 
 />
    <glyph glyph-name="Omacron" unicode="&#x14c;" horiz-adv-x="1593" 
 />
    <glyph glyph-name="omacron" unicode="&#x14d;" 
 />
    <glyph glyph-name="Obreve" unicode="&#x14e;" horiz-adv-x="1593" 
 />
    <glyph glyph-name="obreve" unicode="&#x14f;" 
 />
    <glyph glyph-name="Ohungarumlaut" unicode="&#x150;" horiz-adv-x="1593" 
 />
    <glyph glyph-name="ohungarumlaut" unicode="&#x151;" 
 />
    <glyph glyph-name="OE" unicode="&#x152;" horiz-adv-x="1768" 
d="M985.5 681.5q-15.5 -167.5 -107.5 -279t-228 -118t-232 110.5t-74 295.5t127.5 286t237.5 106t212 -117.5t64.5 -283.5zM737 1459q-275 0 -483 -223t-237 -550t147.5 -535.5t454.5 -208.5q121 0 226 42q14 -27 43 -33l757 33q106 155 23 332l-493 -16l27 310l369 19
q87 130 12 276l-359 -7l18 256l476 17q66 137 17 294l-763 -24q-16 -7 -27 -19q-94 37 -208 37z" />
    <glyph glyph-name="oe" unicode="&#x153;" horiz-adv-x="1768" 
d="M985.5 681.5q-15.5 -167.5 -107.5 -279t-228 -118t-232 110.5t-74 295.5t127.5 286t237.5 106t212 -117.5t64.5 -283.5zM737 1459q-275 0 -483 -223t-237 -550t147.5 -535.5t454.5 -208.5q121 0 226 42q14 -27 43 -33l757 33q106 155 23 332l-493 -16l27 310l369 19
q87 130 12 276l-359 -7l18 256l476 17q66 137 17 294l-763 -24q-16 -7 -27 -19q-94 37 -208 37z" />
    <glyph glyph-name="Racute" unicode="&#x154;" horiz-adv-x="1479" 
 />
    <glyph glyph-name="racute" unicode="&#x155;" horiz-adv-x="682" 
 />
    <glyph glyph-name="Rcommaaccent" unicode="&#x156;" horiz-adv-x="1479" 
 />
    <glyph glyph-name="rcommaaccent" unicode="&#x157;" horiz-adv-x="682" 
 />
    <glyph glyph-name="Rcaron" unicode="&#x158;" horiz-adv-x="1479" 
 />
    <glyph glyph-name="rcaron" unicode="&#x159;" horiz-adv-x="682" 
 />
    <glyph glyph-name="Sacute" unicode="&#x15a;" horiz-adv-x="1366" 
 />
    <glyph glyph-name="sacute" unicode="&#x15b;" horiz-adv-x="1024" 
 />
    <glyph glyph-name="Scircumflex" unicode="&#x15c;" horiz-adv-x="1366" 
 />
    <glyph glyph-name="scircumflex" unicode="&#x15d;" horiz-adv-x="1024" 
 />
    <glyph glyph-name="Scedilla" unicode="&#x15e;" horiz-adv-x="1366" 
 />
    <glyph glyph-name="scedilla" unicode="&#x15f;" horiz-adv-x="1024" 
 />
    <glyph glyph-name="Scaron" unicode="&#x160;" horiz-adv-x="1366" 
 />
    <glyph glyph-name="scaron" unicode="&#x161;" horiz-adv-x="1024" 
 />
    <glyph glyph-name="Tcommaaccent" unicode="&#x162;" horiz-adv-x="1251" 
 />
    <glyph glyph-name="tcommaaccent" unicode="&#x163;" horiz-adv-x="569" 
 />
    <glyph glyph-name="Tcaron" unicode="&#x164;" horiz-adv-x="1251" 
 />
    <glyph glyph-name="tcaron" unicode="&#x165;" horiz-adv-x="768" 
 />
    <glyph glyph-name="Tbar" unicode="&#x166;" horiz-adv-x="1251" 
 />
    <glyph glyph-name="tbar" unicode="&#x167;" horiz-adv-x="569" 
 />
    <glyph glyph-name="Utilde" unicode="&#x168;" horiz-adv-x="1479" 
 />
    <glyph glyph-name="utilde" unicode="&#x169;" 
 />
    <glyph glyph-name="Umacron" unicode="&#x16a;" horiz-adv-x="1479" 
 />
    <glyph glyph-name="umacron" unicode="&#x16b;" 
 />
    <glyph glyph-name="Ubreve" unicode="&#x16c;" horiz-adv-x="1479" 
 />
    <glyph glyph-name="ubreve" unicode="&#x16d;" 
 />
    <glyph glyph-name="Uring" unicode="&#x16e;" horiz-adv-x="1479" 
 />
    <glyph glyph-name="uring" unicode="&#x16f;" 
 />
    <glyph glyph-name="Uhungarumlaut" unicode="&#x170;" horiz-adv-x="1479" 
 />
    <glyph glyph-name="uhungarumlaut" unicode="&#x171;" 
 />
    <glyph glyph-name="Uogonek" unicode="&#x172;" horiz-adv-x="1479" 
 />
    <glyph glyph-name="uogonek" unicode="&#x173;" 
 />
    <glyph glyph-name="Wcircumflex" unicode="&#x174;" horiz-adv-x="1933" 
 />
    <glyph glyph-name="wcircumflex" unicode="&#x175;" horiz-adv-x="1479" 
 />
    <glyph glyph-name="Ycircumflex" unicode="&#x176;" horiz-adv-x="1366" 
 />
    <glyph glyph-name="ycircumflex" unicode="&#x177;" horiz-adv-x="1024" 
 />
    <glyph glyph-name="Ydieresis" unicode="&#x178;" horiz-adv-x="1278" 
d="M55 1359l367 -685l-27 -711q139 -63 321 -2l29 705l473 700q-81 107 -293 96l-315 -510l-239 516q-215 14 -316 -109zM479 1816q30 0 59 -16.5t45 -47.5t16 -65q0 -33 -16 -64t-44.5 -47.5t-59.5 -16.5q-32 0 -60 16.5t-44 47.5t-16 64q0 34 16 65t44.5 47.5t59.5 16.5z
M802 1812q30 0 59 -16.5t45 -47.5t16 -65q0 -33 -15.5 -64t-44.5 -47.5t-60 -16.5t-59.5 16.5t-44.5 47.5t-16 64q0 34 16.5 65t44.5 47.5t59 16.5z" />
    <glyph glyph-name="Zacute" unicode="&#x179;" horiz-adv-x="1251" 
 />
    <glyph glyph-name="zacute" unicode="&#x17a;" horiz-adv-x="1024" 
 />
    <glyph glyph-name="Zdotaccent" unicode="&#x17b;" horiz-adv-x="1251" 
 />
    <glyph glyph-name="zdotaccent" unicode="&#x17c;" horiz-adv-x="1024" 
 />
    <glyph glyph-name="Zcaron" unicode="&#x17d;" horiz-adv-x="1251" 
 />
    <glyph glyph-name="zcaron" unicode="&#x17e;" horiz-adv-x="1024" 
 />
    <glyph glyph-name="longs" unicode="&#x17f;" horiz-adv-x="455" 
 />
    <glyph glyph-name="florin" unicode="&#x192;" 
 />
    <glyph glyph-name="Aringacute" unicode="&#x1fa;" horiz-adv-x="1366" 
 />
    <glyph glyph-name="aringacute" unicode="&#x1fb;" 
 />
    <glyph glyph-name="AEacute" unicode="&#x1fc;" horiz-adv-x="2048" 
 />
    <glyph glyph-name="aeacute" unicode="&#x1fd;" horiz-adv-x="1821" 
 />
    <glyph glyph-name="Oslashacute" unicode="&#x1fe;" horiz-adv-x="1593" 
 />
    <glyph glyph-name="oslashacute" unicode="&#x1ff;" horiz-adv-x="1251" 
 />
    <glyph glyph-name="circumflex" unicode="&#x2c6;" horiz-adv-x="682" 
 />
    <glyph glyph-name="caron" unicode="&#x2c7;" horiz-adv-x="682" 
 />
    <glyph glyph-name="uni02C9" unicode="&#x2c9;" horiz-adv-x="682" 
 />
    <glyph glyph-name="breve" unicode="&#x2d8;" horiz-adv-x="682" 
 />
    <glyph glyph-name="dotaccent" unicode="&#x2d9;" horiz-adv-x="682" 
 />
    <glyph glyph-name="ring" unicode="&#x2da;" horiz-adv-x="682" 
 />
    <glyph glyph-name="ogonek" unicode="&#x2db;" horiz-adv-x="682" 
 />
    <glyph glyph-name="tilde" unicode="&#x2dc;" horiz-adv-x="682" 
 />
    <glyph glyph-name="hungarumlaut" unicode="&#x2dd;" horiz-adv-x="682" 
 />
    <glyph glyph-name="tonos" unicode="&#x384;" horiz-adv-x="682" 
 />
    <glyph glyph-name="dieresistonos" unicode="&#x385;" horiz-adv-x="682" 
 />
    <glyph glyph-name="Alphatonos" unicode="&#x386;" horiz-adv-x="1367" 
 />
    <glyph glyph-name="anoteleia" unicode="&#x387;" horiz-adv-x="569" 
 />
    <glyph glyph-name="Epsilontonos" unicode="&#x388;" horiz-adv-x="1606" 
 />
    <glyph glyph-name="Etatonos" unicode="&#x389;" horiz-adv-x="1716" 
 />
    <glyph glyph-name="Iotatonos" unicode="&#x38a;" horiz-adv-x="786" 
 />
    <glyph glyph-name="Omicrontonos" unicode="&#x38c;" horiz-adv-x="1586" 
 />
    <glyph glyph-name="Upsilontonos" unicode="&#x38e;" horiz-adv-x="1752" 
 />
    <glyph glyph-name="Omegatonos" unicode="&#x38f;" horiz-adv-x="1541" 
 />
    <glyph glyph-name="iotadieresistonos" unicode="&#x390;" horiz-adv-x="455" 
 />
    <glyph glyph-name="Alpha" unicode="&#x391;" horiz-adv-x="1366" 
 />
    <glyph glyph-name="Beta" unicode="&#x392;" horiz-adv-x="1366" 
 />
    <glyph glyph-name="Gamma" unicode="&#x393;" horiz-adv-x="1128" 
 />
    <glyph glyph-name="uni0394" unicode="&#x394;" horiz-adv-x="1368" 
 />
    <glyph glyph-name="Epsilon" unicode="&#x395;" horiz-adv-x="1366" 
 />
    <glyph glyph-name="Zeta" unicode="&#x396;" horiz-adv-x="1251" 
 />
    <glyph glyph-name="Eta" unicode="&#x397;" horiz-adv-x="1479" 
 />
    <glyph glyph-name="Theta" unicode="&#x398;" horiz-adv-x="1593" 
 />
    <glyph glyph-name="Iota" unicode="&#x399;" horiz-adv-x="569" 
 />
    <glyph glyph-name="Kappa" unicode="&#x39a;" horiz-adv-x="1366" 
 />
    <glyph glyph-name="Lambda" unicode="&#x39b;" horiz-adv-x="1368" 
 />
    <glyph glyph-name="Mu" unicode="&#x39c;" horiz-adv-x="1706" 
 />
    <glyph glyph-name="Nu" unicode="&#x39d;" horiz-adv-x="1479" 
 />
    <glyph glyph-name="Xi" unicode="&#x39e;" horiz-adv-x="1331" 
 />
    <glyph glyph-name="Omicron" unicode="&#x39f;" horiz-adv-x="1593" 
 />
    <glyph glyph-name="Pi" unicode="&#x3a0;" horiz-adv-x="1479" 
 />
    <glyph glyph-name="Rho" unicode="&#x3a1;" horiz-adv-x="1366" 
 />
    <glyph glyph-name="Sigma" unicode="&#x3a3;" horiz-adv-x="1266" 
 />
    <glyph glyph-name="Tau" unicode="&#x3a4;" horiz-adv-x="1251" 
 />
    <glyph glyph-name="Upsilon" unicode="&#x3a5;" horiz-adv-x="1366" 
 />
    <glyph glyph-name="Phi" unicode="&#x3a6;" horiz-adv-x="1634" 
 />
    <glyph glyph-name="Chi" unicode="&#x3a7;" horiz-adv-x="1366" 
 />
    <glyph glyph-name="Psi" unicode="&#x3a8;" horiz-adv-x="1711" 
 />
    <glyph glyph-name="uni03A9" unicode="&#x3a9;" horiz-adv-x="1531" 
 />
    <glyph glyph-name="Iotadieresis" unicode="&#x3aa;" horiz-adv-x="569" 
 />
    <glyph glyph-name="Upsilondieresis" unicode="&#x3ab;" horiz-adv-x="1366" 
 />
    <glyph glyph-name="alphatonos" unicode="&#x3ac;" horiz-adv-x="1184" 
 />
    <glyph glyph-name="epsilontonos" unicode="&#x3ad;" horiz-adv-x="913" 
 />
    <glyph glyph-name="etatonos" unicode="&#x3ae;" 
 />
    <glyph glyph-name="iotatonos" unicode="&#x3af;" horiz-adv-x="455" 
 />
    <glyph glyph-name="upsilondieresistonos" unicode="&#x3b0;" horiz-adv-x="1120" 
 />
    <glyph glyph-name="alpha" unicode="&#x3b1;" horiz-adv-x="1184" 
 />
    <glyph glyph-name="beta" unicode="&#x3b2;" horiz-adv-x="1178" 
 />
    <glyph glyph-name="gamma" unicode="&#x3b3;" horiz-adv-x="1024" 
 />
    <glyph glyph-name="delta" unicode="&#x3b4;" horiz-adv-x="1140" 
 />
    <glyph glyph-name="epsilon" unicode="&#x3b5;" horiz-adv-x="913" 
 />
    <glyph glyph-name="zeta" unicode="&#x3b6;" horiz-adv-x="903" 
 />
    <glyph glyph-name="eta" unicode="&#x3b7;" 
 />
    <glyph glyph-name="theta" unicode="&#x3b8;" 
 />
    <glyph glyph-name="iota" unicode="&#x3b9;" horiz-adv-x="455" 
 />
    <glyph glyph-name="kappa" unicode="&#x3ba;" horiz-adv-x="1024" 
 />
    <glyph glyph-name="lambda" unicode="&#x3bb;" horiz-adv-x="1024" 
 />
    <glyph glyph-name="uni03BC" unicode="&#x3bc;" horiz-adv-x="1180" 
 />
    <glyph glyph-name="nu" unicode="&#x3bd;" horiz-adv-x="1024" 
 />
    <glyph glyph-name="xi" unicode="&#x3be;" horiz-adv-x="917" 
 />
    <glyph glyph-name="omicron" unicode="&#x3bf;" 
 />
    <glyph glyph-name="pi" unicode="&#x3c0;" horiz-adv-x="1413" 
 />
    <glyph glyph-name="rho" unicode="&#x3c1;" horiz-adv-x="1165" 
 />
    <glyph glyph-name="sigma1" unicode="&#x3c2;" horiz-adv-x="987" 
 />
    <glyph glyph-name="sigma" unicode="&#x3c3;" horiz-adv-x="1264" 
 />
    <glyph glyph-name="tau" unicode="&#x3c4;" horiz-adv-x="809" 
 />
    <glyph glyph-name="upsilon" unicode="&#x3c5;" horiz-adv-x="1120" 
 />
    <glyph glyph-name="phi" unicode="&#x3c6;" horiz-adv-x="1328" 
 />
    <glyph glyph-name="chi" unicode="&#x3c7;" horiz-adv-x="1075" 
 />
    <glyph glyph-name="psi" unicode="&#x3c8;" horiz-adv-x="1460" 
 />
    <glyph glyph-name="omega" unicode="&#x3c9;" horiz-adv-x="1599" 
 />
    <glyph glyph-name="iotadieresis" unicode="&#x3ca;" horiz-adv-x="455" 
 />
    <glyph glyph-name="upsilondieresis" unicode="&#x3cb;" horiz-adv-x="1120" 
 />
    <glyph glyph-name="omicrontonos" unicode="&#x3cc;" 
 />
    <glyph glyph-name="upsilontonos" unicode="&#x3cd;" horiz-adv-x="1120" 
 />
    <glyph glyph-name="omegatonos" unicode="&#x3ce;" horiz-adv-x="1599" 
 />
    <glyph glyph-name="afii10023" unicode="&#x401;" horiz-adv-x="1367" 
 />
    <glyph glyph-name="afii10051" unicode="&#x402;" horiz-adv-x="1771" 
 />
    <glyph glyph-name="afii10052" unicode="&#x403;" horiz-adv-x="1109" 
 />
    <glyph glyph-name="afii10053" unicode="&#x404;" horiz-adv-x="1472" 
 />
    <glyph glyph-name="afii10054" unicode="&#x405;" horiz-adv-x="1366" 
 />
    <glyph glyph-name="afii10055" unicode="&#x406;" horiz-adv-x="569" 
 />
    <glyph glyph-name="afii10056" unicode="&#x407;" horiz-adv-x="569" 
 />
    <glyph glyph-name="afii10057" unicode="&#x408;" horiz-adv-x="1024" 
 />
    <glyph glyph-name="afii10058" unicode="&#x409;" horiz-adv-x="2165" 
 />
    <glyph glyph-name="afii10059" unicode="&#x40a;" horiz-adv-x="2069" 
 />
    <glyph glyph-name="afii10060" unicode="&#x40b;" horiz-adv-x="1749" 
 />
    <glyph glyph-name="afii10061" unicode="&#x40c;" horiz-adv-x="1193" 
 />
    <glyph glyph-name="afii10062" unicode="&#x40e;" horiz-adv-x="1301" 
 />
    <glyph glyph-name="afii10145" unicode="&#x40f;" horiz-adv-x="1472" 
 />
    <glyph glyph-name="afii10017" unicode="&#x410;" horiz-adv-x="1366" 
 />
    <glyph glyph-name="afii10018" unicode="&#x411;" horiz-adv-x="1344" 
 />
    <glyph glyph-name="afii10019" unicode="&#x412;" horiz-adv-x="1366" 
 />
    <glyph glyph-name="afii10020" unicode="&#x413;" horiz-adv-x="1109" 
 />
    <glyph glyph-name="afii10021" unicode="&#x414;" horiz-adv-x="1387" 
 />
    <glyph glyph-name="afii10022" unicode="&#x415;" horiz-adv-x="1366" 
 />
    <glyph glyph-name="afii10024" unicode="&#x416;" horiz-adv-x="1891" 
 />
    <glyph glyph-name="afii10025" unicode="&#x417;" horiz-adv-x="1237" 
 />
    <glyph glyph-name="afii10026" unicode="&#x418;" horiz-adv-x="1472" 
 />
    <glyph glyph-name="afii10027" unicode="&#x419;" horiz-adv-x="1472" 
 />
    <glyph glyph-name="afii10028" unicode="&#x41a;" horiz-adv-x="1193" 
 />
    <glyph glyph-name="afii10029" unicode="&#x41b;" horiz-adv-x="1344" 
 />
    <glyph glyph-name="afii10030" unicode="&#x41c;" horiz-adv-x="1706" 
 />
    <glyph glyph-name="afii10031" unicode="&#x41d;" horiz-adv-x="1479" 
 />
    <glyph glyph-name="afii10032" unicode="&#x41e;" horiz-adv-x="1593" 
 />
    <glyph glyph-name="afii10033" unicode="&#x41f;" horiz-adv-x="1472" 
 />
    <glyph glyph-name="afii10034" unicode="&#x420;" horiz-adv-x="1366" 
 />
    <glyph glyph-name="afii10035" unicode="&#x421;" horiz-adv-x="1479" 
 />
    <glyph glyph-name="afii10036" unicode="&#x422;" horiz-adv-x="1251" 
 />
    <glyph glyph-name="afii10037" unicode="&#x423;" horiz-adv-x="1301" 
 />
    <glyph glyph-name="afii10038" unicode="&#x424;" horiz-adv-x="1557" 
 />
    <glyph glyph-name="afii10039" unicode="&#x425;" horiz-adv-x="1366" 
 />
    <glyph glyph-name="afii10040" unicode="&#x426;" horiz-adv-x="1515" 
 />
    <glyph glyph-name="afii10041" unicode="&#x427;" horiz-adv-x="1365" 
 />
    <glyph glyph-name="afii10042" unicode="&#x428;" horiz-adv-x="1877" 
 />
    <glyph glyph-name="afii10043" unicode="&#x429;" horiz-adv-x="1920" 
 />
    <glyph glyph-name="afii10044" unicode="&#x42a;" horiz-adv-x="1621" 
 />
    <glyph glyph-name="afii10045" unicode="&#x42b;" horiz-adv-x="1813" 
 />
    <glyph glyph-name="afii10046" unicode="&#x42c;" horiz-adv-x="1344" 
 />
    <glyph glyph-name="afii10047" unicode="&#x42d;" horiz-adv-x="1472" 
 />
    <glyph glyph-name="afii10048" unicode="&#x42e;" horiz-adv-x="2069" 
 />
    <glyph glyph-name="afii10049" unicode="&#x42f;" horiz-adv-x="1479" 
 />
    <glyph glyph-name="afii10065" unicode="&#x430;" 
 />
    <glyph glyph-name="afii10066" unicode="&#x431;" horiz-adv-x="1173" 
 />
    <glyph glyph-name="afii10067" unicode="&#x432;" horiz-adv-x="1088" 
 />
    <glyph glyph-name="afii10068" unicode="&#x433;" horiz-adv-x="747" 
 />
    <glyph glyph-name="afii10069" unicode="&#x434;" horiz-adv-x="1195" 
 />
    <glyph glyph-name="afii10070" unicode="&#x435;" 
 />
    <glyph glyph-name="afii10072" unicode="&#x436;" horiz-adv-x="1370" 
 />
    <glyph glyph-name="afii10073" unicode="&#x437;" horiz-adv-x="939" 
 />
    <glyph glyph-name="afii10074" unicode="&#x438;" horiz-adv-x="1144" 
 />
    <glyph glyph-name="afii10075" unicode="&#x439;" horiz-adv-x="1144" 
 />
    <glyph glyph-name="afii10076" unicode="&#x43a;" horiz-adv-x="896" 
 />
    <glyph glyph-name="afii10077" unicode="&#x43b;" horiz-adv-x="1195" 
 />
    <glyph glyph-name="afii10078" unicode="&#x43c;" horiz-adv-x="1408" 
 />
    <glyph glyph-name="afii10079" unicode="&#x43d;" horiz-adv-x="1131" 
 />
    <glyph glyph-name="afii10080" unicode="&#x43e;" 
 />
    <glyph glyph-name="afii10081" unicode="&#x43f;" horiz-adv-x="1109" 
 />
    <glyph glyph-name="afii10082" unicode="&#x440;" 
 />
    <glyph glyph-name="afii10083" unicode="&#x441;" horiz-adv-x="1024" 
 />
    <glyph glyph-name="afii10084" unicode="&#x442;" horiz-adv-x="938" 
 />
    <glyph glyph-name="afii10085" unicode="&#x443;" horiz-adv-x="1024" 
 />
    <glyph glyph-name="afii10086" unicode="&#x444;" horiz-adv-x="1685" 
 />
    <glyph glyph-name="afii10087" unicode="&#x445;" horiz-adv-x="1024" 
 />
    <glyph glyph-name="afii10088" unicode="&#x446;" horiz-adv-x="1173" 
 />
    <glyph glyph-name="afii10089" unicode="&#x447;" horiz-adv-x="1067" 
 />
    <glyph glyph-name="afii10090" unicode="&#x448;" horiz-adv-x="1643" 
 />
    <glyph glyph-name="afii10091" unicode="&#x449;" horiz-adv-x="1685" 
 />
    <glyph glyph-name="afii10092" unicode="&#x44a;" horiz-adv-x="1280" 
 />
    <glyph glyph-name="afii10093" unicode="&#x44b;" horiz-adv-x="1472" 
 />
    <glyph glyph-name="afii10094" unicode="&#x44c;" horiz-adv-x="1067" 
 />
    <glyph glyph-name="afii10095" unicode="&#x44d;" horiz-adv-x="1045" 
 />
    <glyph glyph-name="afii10096" unicode="&#x44e;" horiz-adv-x="1536" 
 />
    <glyph glyph-name="afii10097" unicode="&#x44f;" horiz-adv-x="1109" 
 />
    <glyph glyph-name="afii10071" unicode="&#x451;" 
 />
    <glyph glyph-name="afii10099" unicode="&#x452;" 
 />
    <glyph glyph-name="afii10100" unicode="&#x453;" horiz-adv-x="747" 
 />
    <glyph glyph-name="afii10101" unicode="&#x454;" horiz-adv-x="1045" 
 />
    <glyph glyph-name="afii10102" unicode="&#x455;" horiz-adv-x="1024" 
 />
    <glyph glyph-name="afii10103" unicode="&#x456;" horiz-adv-x="455" 
 />
    <glyph glyph-name="afii10104" unicode="&#x457;" horiz-adv-x="569" 
 />
    <glyph glyph-name="afii10105" unicode="&#x458;" horiz-adv-x="455" 
 />
    <glyph glyph-name="afii10106" unicode="&#x459;" horiz-adv-x="1856" 
 />
    <glyph glyph-name="afii10107" unicode="&#x45a;" horiz-adv-x="1664" 
 />
    <glyph glyph-name="afii10108" unicode="&#x45b;" 
 />
    <glyph glyph-name="afii10109" unicode="&#x45c;" horiz-adv-x="896" 
 />
    <glyph glyph-name="afii10110" unicode="&#x45e;" horiz-adv-x="1024" 
 />
    <glyph glyph-name="afii10193" unicode="&#x45f;" horiz-adv-x="1131" 
 />
    <glyph glyph-name="afii10050" unicode="&#x490;" horiz-adv-x="1001" 
 />
    <glyph glyph-name="afii10098" unicode="&#x491;" horiz-adv-x="842" 
 />
    <glyph glyph-name="Wgrave" unicode="&#x1e80;" horiz-adv-x="1933" 
 />
    <glyph glyph-name="wgrave" unicode="&#x1e81;" horiz-adv-x="1479" 
 />
    <glyph glyph-name="Wacute" unicode="&#x1e82;" horiz-adv-x="1933" 
 />
    <glyph glyph-name="wacute" unicode="&#x1e83;" horiz-adv-x="1479" 
 />
    <glyph glyph-name="Wdieresis" unicode="&#x1e84;" horiz-adv-x="1933" 
 />
    <glyph glyph-name="wdieresis" unicode="&#x1e85;" horiz-adv-x="1479" 
 />
    <glyph glyph-name="Ygrave" unicode="&#x1ef2;" horiz-adv-x="1366" 
 />
    <glyph glyph-name="ygrave" unicode="&#x1ef3;" horiz-adv-x="1024" 
 />
    <glyph glyph-name="endash" unicode="&#x2013;" 
 />
    <glyph glyph-name="emdash" unicode="&#x2014;" horiz-adv-x="2048" 
 />
    <glyph glyph-name="afii00208" unicode="&#x2015;" horiz-adv-x="2048" 
 />
    <glyph glyph-name="underscoredbl" unicode="&#x2017;" horiz-adv-x="1131" 
 />
    <glyph glyph-name="quoteleft" unicode="&#x2018;" horiz-adv-x="419" 
d="M359 1518l-44 -564q-128 -76 -260 -3l46 574q139 32 258 -7z" />
    <glyph glyph-name="quoteright" unicode="&#x2019;" horiz-adv-x="419" 
d="M359 1518l-44 -564q-128 -76 -260 -3l46 574q139 32 258 -7z" />
    <glyph glyph-name="quotesinglbase" unicode="&#x201a;" horiz-adv-x="455" 
 />
    <glyph glyph-name="quotereversed" unicode="&#x201b;" horiz-adv-x="455" 
 />
    <glyph glyph-name="quotedblleft" unicode="&#x201c;" horiz-adv-x="720" 
d="M359 1518l-44 -564q-128 -76 -260 -3l46 574q139 32 258 -7zM660 1511l-43 -564q-128 -76 -260 -3l46 574q139 32 257 -7z" />
    <glyph glyph-name="quotedblright" unicode="&#x201d;" horiz-adv-x="720" 
d="M359 1518l-44 -564q-128 -76 -260 -3l46 574q139 32 258 -7zM660 1511l-43 -564q-128 -76 -260 -3l46 574q139 32 257 -7z" />
    <glyph glyph-name="quotedblbase" unicode="&#x201e;" horiz-adv-x="682" 
 />
    <glyph glyph-name="dagger" unicode="&#x2020;" 
 />
    <glyph glyph-name="daggerdbl" unicode="&#x2021;" 
 />
    <glyph glyph-name="bullet" unicode="&#x2022;" horiz-adv-x="611" 
d="M304 1156q63 0 122.5 -32t93 -91.5t33.5 -125.5q0 -64 -33 -123.5t-92.5 -91.5t-123.5 -32q-66 0 -124.5 32t-91.5 91.5t-33 123.5q0 66 33.5 125.5t92.5 91.5t123 32z" />
    <glyph glyph-name="ellipsis" unicode="&#x2026;" horiz-adv-x="2048" 
 />
    <glyph glyph-name="perthousand" unicode="&#x2030;" horiz-adv-x="2048" 
 />
    <glyph glyph-name="minute" unicode="&#x2032;" horiz-adv-x="384" 
 />
    <glyph glyph-name="second" unicode="&#x2033;" horiz-adv-x="725" 
 />
    <glyph glyph-name="guilsinglleft" unicode="&#x2039;" horiz-adv-x="682" 
 />
    <glyph glyph-name="guilsinglright" unicode="&#x203a;" horiz-adv-x="682" 
 />
    <glyph glyph-name="exclamdbl" unicode="&#x203c;" horiz-adv-x="1024" 
 />
    <glyph glyph-name="uni203E" unicode="&#x203e;" horiz-adv-x="682" 
 />
    <glyph glyph-name="fraction" unicode="&#x2044;" horiz-adv-x="342" 
 />
    <glyph glyph-name="fraction" unicode="&#x2215;" horiz-adv-x="342" 
 />
    <glyph glyph-name="uni207F" unicode="&#x207f;" horiz-adv-x="747" 
 />
    <glyph glyph-name="franc" unicode="&#x20a3;" 
 />
    <glyph glyph-name="lira" unicode="&#x20a4;" 
 />
    <glyph glyph-name="peseta" unicode="&#x20a7;" horiz-adv-x="2240" 
 />
    <glyph glyph-name="Euro" unicode="&#x20ac;" horiz-adv-x="1274" 
d="M162 912q55 272 201 422q223 181 541 148q221 -14 309 -163q35 -180 -94 -288q-87 56 -273 89q-163 16 -266 -94q-47 -51 -77 -114h639q19 -83 -53 -162h-633q-1 -5 -2 -11q-7 -23 -9 -49h697q19 -83 -53 -162h-621q11 -35 28 -74q76 -158 231.5 -167t372.5 61
q78 -154 15 -302q-257 -118 -417 -112q-295 37 -430 214q-114 151 -133 380h-74q-34 79 52 162h21q1 29 4 60h-77q-34 79 52 162h49z" />
    <glyph glyph-name="afii61248" unicode="&#x2105;" horiz-adv-x="1813" 
 />
    <glyph glyph-name="afii61289" unicode="&#x2113;" horiz-adv-x="662" 
 />
    <glyph glyph-name="afii61352" unicode="&#x2116;" horiz-adv-x="2197" 
 />
    <glyph glyph-name="trademark" unicode="&#x2122;" horiz-adv-x="2048" 
 />
    <glyph glyph-name="Omega" unicode="&#x2126;" horiz-adv-x="1573" 
 />
    <glyph glyph-name="estimated" unicode="&#x212e;" horiz-adv-x="1229" 
 />
    <glyph glyph-name="oneeighth" unicode="&#x215b;" horiz-adv-x="1708" 
 />
    <glyph glyph-name="threeeighths" unicode="&#x215c;" horiz-adv-x="1708" 
 />
    <glyph glyph-name="fiveeighths" unicode="&#x215d;" horiz-adv-x="1708" 
 />
    <glyph glyph-name="seveneighths" unicode="&#x215e;" horiz-adv-x="1708" 
 />
    <glyph glyph-name="arrowleft" unicode="&#x2190;" horiz-adv-x="2048" 
 />
    <glyph glyph-name="arrowup" unicode="&#x2191;" horiz-adv-x="1024" 
 />
    <glyph glyph-name="arrowright" unicode="&#x2192;" horiz-adv-x="2048" 
 />
    <glyph glyph-name="arrowdown" unicode="&#x2193;" horiz-adv-x="1024" 
 />
    <glyph glyph-name="arrowboth" unicode="&#x2194;" horiz-adv-x="2048" 
 />
    <glyph glyph-name="arrowupdn" unicode="&#x2195;" horiz-adv-x="1024" 
 />
    <glyph glyph-name="arrowupdnbse" unicode="&#x21a8;" horiz-adv-x="1024" 
 />
    <glyph glyph-name="partialdiff" unicode="&#x2202;" horiz-adv-x="1012" 
 />
    <glyph glyph-name="Delta" unicode="&#x2206;" horiz-adv-x="1253" 
 />
    <glyph glyph-name="product" unicode="&#x220f;" horiz-adv-x="1686" 
 />
    <glyph glyph-name="summation" unicode="&#x2211;" horiz-adv-x="1460" 
 />
    <glyph glyph-name="minus" unicode="&#x2212;" horiz-adv-x="1196" 
 />
    <glyph glyph-name="radical" unicode="&#x221a;" horiz-adv-x="1124" 
 />
    <glyph glyph-name="infinity" unicode="&#x221e;" horiz-adv-x="1460" 
 />
    <glyph glyph-name="orthogonal" unicode="&#x221f;" horiz-adv-x="2005" 
 />
    <glyph glyph-name="intersection" unicode="&#x2229;" horiz-adv-x="1472" 
 />
    <glyph glyph-name="integral" unicode="&#x222b;" horiz-adv-x="561" 
 />
    <glyph glyph-name="approxequal" unicode="&#x2248;" horiz-adv-x="1124" 
 />
    <glyph glyph-name="notequal" unicode="&#x2260;" horiz-adv-x="1124" 
 />
    <glyph glyph-name="equivalence" unicode="&#x2261;" horiz-adv-x="1195" 
 />
    <glyph glyph-name="lessequal" unicode="&#x2264;" horiz-adv-x="1124" 
 />
    <glyph glyph-name="greaterequal" unicode="&#x2265;" horiz-adv-x="1124" 
 />
    <glyph glyph-name="house" unicode="&#x2302;" horiz-adv-x="1237" 
 />
    <glyph glyph-name="revlogicalnot" unicode="&#x2310;" horiz-adv-x="1196" 
 />
    <glyph glyph-name="integraltp" unicode="&#x2320;" horiz-adv-x="1237" 
 />
    <glyph glyph-name="integralbt" unicode="&#x2321;" horiz-adv-x="1237" 
 />
    <glyph glyph-name="SF100000" unicode="&#x2500;" horiz-adv-x="1451" 
 />
    <glyph glyph-name="SF110000" unicode="&#x2502;" horiz-adv-x="1280" 
 />
    <glyph glyph-name="SF010000" unicode="&#x250c;" horiz-adv-x="1451" 
 />
    <glyph glyph-name="SF030000" unicode="&#x2510;" horiz-adv-x="1451" 
 />
    <glyph glyph-name="SF020000" unicode="&#x2514;" horiz-adv-x="1451" 
 />
    <glyph glyph-name="SF040000" unicode="&#x2518;" horiz-adv-x="1451" 
 />
    <glyph glyph-name="SF080000" unicode="&#x251c;" horiz-adv-x="1451" 
 />
    <glyph glyph-name="SF090000" unicode="&#x2524;" horiz-adv-x="1451" 
 />
    <glyph glyph-name="SF060000" unicode="&#x252c;" horiz-adv-x="1451" 
 />
    <glyph glyph-name="SF070000" unicode="&#x2534;" horiz-adv-x="1451" 
 />
    <glyph glyph-name="SF050000" unicode="&#x253c;" horiz-adv-x="1451" 
 />
    <glyph glyph-name="SF430000" unicode="&#x2550;" horiz-adv-x="1451" 
 />
    <glyph glyph-name="SF240000" unicode="&#x2551;" horiz-adv-x="1451" 
 />
    <glyph glyph-name="SF510000" unicode="&#x2552;" horiz-adv-x="1451" 
 />
    <glyph glyph-name="SF520000" unicode="&#x2553;" horiz-adv-x="1451" 
 />
    <glyph glyph-name="SF390000" unicode="&#x2554;" horiz-adv-x="1451" 
 />
    <glyph glyph-name="SF220000" unicode="&#x2555;" horiz-adv-x="1451" 
 />
    <glyph glyph-name="SF210000" unicode="&#x2556;" horiz-adv-x="1451" 
 />
    <glyph glyph-name="SF250000" unicode="&#x2557;" horiz-adv-x="1451" 
 />
    <glyph glyph-name="SF500000" unicode="&#x2558;" horiz-adv-x="1451" 
 />
    <glyph glyph-name="SF490000" unicode="&#x2559;" horiz-adv-x="1451" 
 />
    <glyph glyph-name="SF380000" unicode="&#x255a;" horiz-adv-x="1451" 
 />
    <glyph glyph-name="SF280000" unicode="&#x255b;" horiz-adv-x="1451" 
 />
    <glyph glyph-name="SF270000" unicode="&#x255c;" horiz-adv-x="1451" 
 />
    <glyph glyph-name="SF260000" unicode="&#x255d;" horiz-adv-x="1451" 
 />
    <glyph glyph-name="SF360000" unicode="&#x255e;" horiz-adv-x="1451" 
 />
    <glyph glyph-name="SF370000" unicode="&#x255f;" horiz-adv-x="1451" 
 />
    <glyph glyph-name="SF420000" unicode="&#x2560;" horiz-adv-x="1451" 
 />
    <glyph glyph-name="SF190000" unicode="&#x2561;" horiz-adv-x="1451" 
 />
    <glyph glyph-name="SF200000" unicode="&#x2562;" horiz-adv-x="1451" 
 />
    <glyph glyph-name="SF230000" unicode="&#x2563;" horiz-adv-x="1451" 
 />
    <glyph glyph-name="SF470000" unicode="&#x2564;" horiz-adv-x="1451" 
 />
    <glyph glyph-name="SF480000" unicode="&#x2565;" horiz-adv-x="1451" 
 />
    <glyph glyph-name="SF410000" unicode="&#x2566;" horiz-adv-x="1451" 
 />
    <glyph glyph-name="SF450000" unicode="&#x2567;" horiz-adv-x="1451" 
 />
    <glyph glyph-name="SF460000" unicode="&#x2568;" horiz-adv-x="1451" 
 />
    <glyph glyph-name="SF400000" unicode="&#x2569;" horiz-adv-x="1451" 
 />
    <glyph glyph-name="SF540000" unicode="&#x256a;" horiz-adv-x="1451" 
 />
    <glyph glyph-name="SF530000" unicode="&#x256b;" horiz-adv-x="1451" 
 />
    <glyph glyph-name="SF440000" unicode="&#x256c;" horiz-adv-x="1451" 
 />
    <glyph glyph-name="upblock" unicode="&#x2580;" horiz-adv-x="1451" 
 />
    <glyph glyph-name="dnblock" unicode="&#x2584;" horiz-adv-x="1451" 
 />
    <glyph glyph-name="block" unicode="&#x2588;" horiz-adv-x="1451" 
 />
    <glyph glyph-name="lfblock" unicode="&#x258c;" horiz-adv-x="1451" 
 />
    <glyph glyph-name="rtblock" unicode="&#x2590;" horiz-adv-x="1451" 
 />
    <glyph glyph-name="ltshade" unicode="&#x2591;" horiz-adv-x="1451" 
 />
    <glyph glyph-name="shade" unicode="&#x2592;" horiz-adv-x="1451" 
 />
    <glyph glyph-name="dkshade" unicode="&#x2593;" horiz-adv-x="1493" 
 />
    <glyph glyph-name="filledbox" unicode="&#x25a0;" horiz-adv-x="1237" 
 />
    <glyph glyph-name="H22073" unicode="&#x25a1;" horiz-adv-x="1237" 
 />
    <glyph glyph-name="H18543" unicode="&#x25aa;" horiz-adv-x="726" 
 />
    <glyph glyph-name="H18551" unicode="&#x25ab;" horiz-adv-x="726" 
 />
    <glyph glyph-name="filledrect" unicode="&#x25ac;" horiz-adv-x="2048" 
 />
    <glyph glyph-name="triagup" unicode="&#x25b2;" horiz-adv-x="2027" 
 />
    <glyph glyph-name="triagrt" unicode="&#x25ba;" horiz-adv-x="2027" 
 />
    <glyph glyph-name="triagdn" unicode="&#x25bc;" horiz-adv-x="2027" 
 />
    <glyph glyph-name="triaglf" unicode="&#x25c4;" horiz-adv-x="2027" 
 />
    <glyph glyph-name="lozenge" unicode="&#x25ca;" horiz-adv-x="1012" 
 />
    <glyph glyph-name="circle" unicode="&#x25cb;" horiz-adv-x="1237" 
 />
    <glyph glyph-name="H18533" unicode="&#x25cf;" horiz-adv-x="1237" 
 />
    <glyph glyph-name="invbullet" unicode="&#x25d8;" horiz-adv-x="1237" 
 />
    <glyph glyph-name="invcircle" unicode="&#x25d9;" horiz-adv-x="1237" 
 />
    <glyph glyph-name="openbullet" unicode="&#x25e6;" horiz-adv-x="726" 
 />
    <glyph glyph-name="smileface" unicode="&#x263a;" horiz-adv-x="2091" 
 />
    <glyph glyph-name="invsmileface" unicode="&#x263b;" horiz-adv-x="2155" 
 />
    <glyph glyph-name="sun" unicode="&#x263c;" horiz-adv-x="1877" 
 />
    <glyph glyph-name="female" unicode="&#x2640;" horiz-adv-x="1536" 
 />
    <glyph glyph-name="male" unicode="&#x2642;" horiz-adv-x="1536" 
 />
    <glyph glyph-name="spade" unicode="&#x2660;" horiz-adv-x="1088" 
 />
    <glyph glyph-name="club" unicode="&#x2663;" horiz-adv-x="1344" 
 />
    <glyph glyph-name="heart" unicode="&#x2665;" horiz-adv-x="1216" 
 />
    <glyph glyph-name="diamond" unicode="&#x2666;" horiz-adv-x="1045" 
 />
    <glyph glyph-name="musicalnote" unicode="&#x266a;" horiz-adv-x="1024" 
 />
    <glyph glyph-name="musicalnotedbl" unicode="&#x266b;" horiz-adv-x="1536" 
 />
    <glyph glyph-name="uniF001" unicode="&#xf001;" horiz-adv-x="1024" 
 />
    <glyph glyph-name="uniF001" unicode="&#xfb01;" horiz-adv-x="1024" 
 />
    <glyph glyph-name="uniF002" unicode="&#xf002;" horiz-adv-x="1024" 
 />
    <glyph glyph-name="uniF002" unicode="&#xfb02;" horiz-adv-x="1024" 
 />
    <glyph glyph-name="uniF004" unicode="&#xf004;" horiz-adv-x="682" 
 />
    <glyph glyph-name="uniF005" unicode="&#xf005;" horiz-adv-x="682" 
 />
    <glyph glyph-name="glyph155" horiz-adv-x="1124" 
 />
  </font>
</defs>
</svg>
